<svg xmlns="http://www.w3.org/2000/svg" fill="none" viewBox="-4 160 1365 927">
<g filter="url(#filter0_d_1_1885)">
<rect x="20" y="184" width="1317" height="879" rx="40" fill="white" shape-rendering="crispEdges"/>
<rect x="8" y="172" width="1341" height="903" rx="52" stroke="white" stroke-opacity="0.1" stroke-width="24" shape-rendering="crispEdges"/>
<circle cx="45.5" cy="221.5" r="6.5" fill="#E05758"/>
<circle cx="67.5" cy="221.5" r="6.5" fill="#F0D149"/>
<circle cx="89.5" cy="221.5" r="6.5" fill="#68D443"/>
<rect x="112" y="206" width="55" height="32" rx="8" fill="#E1E1E1" fill-opacity="0.5"/>
<path opacity="0.3" d="M82 273.783V276H72V273.783H82ZM78.2725 270V280H75.7375V270H78.2725Z" fill="#2E2E2E"/>
<line opacity="0.7" x1="427.5" y1="184" x2="427.5" y2="249" stroke="#E1E1E1"/>
<line opacity="0.7" x1="118.5" y1="293" x2="118.5" y2="1063" stroke="#E1E1E1"/>
<line opacity="0.7" x1="255.5" y1="293" x2="255.5" y2="1063" stroke="#E1E1E1"/>
<line opacity="0.7" x1="392.5" y1="293" x2="392.5" y2="1063" stroke="#E1E1E1"/>
<line opacity="0.7" x1="529.5" y1="293" x2="529.5" y2="1063" stroke="#E1E1E1"/>
<line opacity="0.7" x1="666.5" y1="293" x2="666.5" y2="1063" stroke="#E1E1E1"/>
<line opacity="0.7" x1="803.5" y1="293" x2="803.5" y2="1063" stroke="#E1E1E1"/>
<line opacity="0.7" x1="951.5" y1="293" x2="951.5" y2="1063" stroke="#E1E1E1"/>
<line opacity="0.7" x1="1099.5" y1="293" x2="1099.5" y2="1063" stroke="#E1E1E1"/>
<line opacity="0.7" x1="1247.5" y1="293" x2="1247.5" y2="1063" stroke="#E1E1E1"/>
<line opacity="0.7" x1="1328.5" y1="249" x2="1328.5" y2="1063" stroke="#E1E1E1"/>
<line opacity="0.7" x1="38.5" y1="249" x2="38.5" y2="1063" stroke="#E1E1E1"/>
<line opacity="0.8" x1="39" y1="319.5" x2="1328" y2="319.5" stroke="#E1E1E1"/>
<line opacity="0.8" x1="39" y1="293.5" x2="1328" y2="293.5" stroke="#E1E1E1"/>
<line opacity="0.8" x1="39" y1="248.5" x2="1329" y2="248.5" stroke="#E1E1E1"/>
<line opacity="0.8" x1="118" y1="337.5" x2="1328" y2="337.5" stroke="#E1E1E1"/>
<line opacity="0.3" x1="118" y1="396.5" x2="1328" y2="396.5" stroke="#E1E1E1"/>
<line opacity="0.3" x1="118" y1="455.5" x2="1328" y2="455.5" stroke="#E1E1E1"/>
<line opacity="0.3" x1="118" y1="514.5" x2="1328" y2="514.5" stroke="#E1E1E1"/>
<line opacity="0.3" x1="118" y1="573.5" x2="1328" y2="573.5" stroke="#E1E1E1"/>
<line opacity="0.3" x1="118" y1="632.5" x2="1328" y2="632.5" stroke="#E1E1E1"/>
<line opacity="0.3" x1="118" y1="691.5" x2="1328" y2="691.5" stroke="#E1E1E1"/>
<line opacity="0.3" x1="118" y1="750.5" x2="1328" y2="750.5" stroke="#E1E1E1"/>
<line opacity="0.3" x1="118" y1="809.5" x2="1328" y2="809.5" stroke="#E1E1E1"/>
<line opacity="0.3" x1="118" y1="868.5" x2="1328" y2="868.5" stroke="#E1E1E1"/>
<line opacity="0.3" x1="118" y1="927.5" x2="1328" y2="927.5" stroke="#E1E1E1"/>
<line opacity="0.3" x1="118" y1="986.5" x2="1328" y2="986.5" stroke="#E1E1E1"/>
<path d="M591.318 222.841C591.139 222.649 591.139 222.351 591.318 222.159L595.384 217.799C595.694 217.467 596.25 217.686 596.25 218.14L596.25 226.86C596.25 227.314 595.694 227.533 595.384 227.201L591.318 222.841Z" fill="#858585"/>
<path d="M632.682 222.841C632.861 222.649 632.861 222.351 632.682 222.159L628.616 217.799C628.306 217.467 627.75 217.686 627.75 218.14L627.75 226.86C627.75 227.314 628.306 227.533 628.616 227.201L632.682 222.841Z" fill="#858585"/>
<rect x="187" y="212" width="47" height="20" fill="#C0C0C0"/>
<rect x="161" y="262" width="47" height="20" fill="#F0F0F0"/>
<rect x="65" y="297" width="47" height="20" fill="#F0F0F0"/>
<rect x="65" y="328" width="47" height="20" fill="#F0F0F0"/>
<rect x="65" y="387" width="47" height="20" fill="#F0F0F0"/>
<rect x="65" y="446" width="47" height="20" fill="#F0F0F0"/>
<rect x="65" y="505" width="47" height="20" fill="#F0F0F0"/>
<rect x="65" y="564" width="47" height="20" fill="#F0F0F0"/>
<rect x="65" y="623" width="47" height="20" fill="#F0F0F0"/>
<rect x="65" y="682" width="47" height="20" fill="#F0F0F0"/>
<rect x="65" y="741" width="47" height="20" fill="#F0F0F0"/>
<rect x="65" y="800" width="47" height="20" fill="#F0F0F0"/>
<rect x="65" y="859" width="47" height="20" fill="#F0F0F0"/>
<rect x="65" y="918" width="47" height="20" fill="#F0F0F0"/>
<rect x="65" y="977" width="47" height="20" fill="#F0F0F0"/>
<rect x="299" y="262" width="47" height="20" fill="#F0F0F0"/>
<rect x="437" y="262" width="47" height="20" fill="#F0F0F0"/>
<rect x="575" y="262" width="47" height="20" fill="#F0F0F0"/>
<rect x="713" y="262" width="47" height="20" fill="#F0F0F0"/>
<rect x="851" y="262" width="47" height="20" fill="#F0F0F0"/>
<rect x="989" y="262" width="47" height="20" fill="#F0F0F0"/>
<rect x="1127" y="262" width="47" height="20" fill="#F0F0F0"/>
<rect x="1265" y="262" width="47" height="20" fill="#F0F0F0"/>
<rect x="255" y="212" width="47" height="20" fill="#C0C0C0"/>
<rect x="386" y="212" width="20" height="20" fill="#C0C0C0"/>
<rect x="662" y="212" width="38" height="20" fill="#C0C0C0"/>
<rect x="1261" y="212" width="38" height="20" fill="#C0C0C0"/>
<rect x="448" y="212" width="68" height="20" fill="#2E2E2E"/>
<rect x="128" y="340" width="118" height="54" rx="4" fill="#DFF1E7"/>
<rect x="132" y="344" width="3" height="46" rx="1.5" fill="#0B7146"/>
<rect x="139" y="344" width="59" height="14" fill="#0B7146"/>
<rect opacity="0.4" x="139" y="362" width="32" height="14" fill="#0B7146"/>
<rect x="812" y="340" width="118" height="54" rx="4" fill="#DFF1E7"/>
<rect x="816" y="344" width="3" height="46" rx="1.5" fill="#0B7146"/>
<rect x="823" y="344" width="59" height="14" fill="#0B7146"/>
<rect opacity="0.4" x="823" y="362" width="32" height="14" fill="#0B7146"/>
<rect x="128" y="457" width="118" height="174" rx="4" fill="#DEE7F3"/>
<rect x="132" y="461" width="3" height="46" rx="1.5" fill="#606675"/>
<rect x="139" y="461" width="97" height="14" fill="#606675"/>
<rect opacity="0.4" x="139" y="479" width="32" height="14" fill="#606675"/>
<rect x="812" y="457" width="118" height="174" rx="4" fill="#DEE7F3"/>
<rect x="816" y="461" width="3" height="46" rx="1.5" fill="#606675"/>
<rect x="823" y="461" width="97" height="14" fill="#606675"/>
<rect opacity="0.4" x="823" y="479" width="32" height="14" fill="#606675"/>
<rect x="539" y="574" width="118" height="174" rx="4" fill="#DEE7F3"/>
<rect x="543" y="578" width="3" height="46" rx="1.5" fill="#606675"/>
<rect x="550" y="578" width="97" height="14" fill="#606675"/>
<rect opacity="0.4" x="550" y="596" width="32" height="14" fill="#606675"/>
<rect x="402" y="457" width="118" height="174" rx="4" fill="#DEE7F3"/>
<rect x="406" y="461" width="3" height="46" rx="1.5" fill="#606675"/>
<rect x="413" y="461" width="68" height="14" fill="#606675"/>
<rect opacity="0.4" x="413" y="479" width="32" height="14" fill="#606675"/>
<rect x="1086" y="457" width="118" height="174" rx="4" fill="#DEE7F3"/>
<rect x="1090" y="461" width="3" height="46" rx="1.5" fill="#606675"/>
<rect x="1097" y="461" width="68" height="14" fill="#606675"/>
<rect opacity="0.4" x="1097" y="479" width="32" height="14" fill="#606675"/>
<rect x="676" y="457" width="118" height="174" rx="4" fill="#DEE7F3"/>
<rect x="680" y="461" width="3" height="46" rx="1.5" fill="#606675"/>
<rect x="687" y="461" width="68" height="14" fill="#606675"/>
<rect opacity="0.4" x="687" y="479" width="32" height="14" fill="#606675"/>
<rect x="265" y="400" width="118" height="54" rx="4" fill="#DEE7F3"/>
<rect x="269" y="404" width="3" height="46" rx="1.5" fill="#606675"/>
<rect x="276" y="404" width="97" height="14" fill="#606675"/>
<rect opacity="0.4" x="276" y="422" width="32" height="14" fill="#606675"/>
<rect x="949" y="400" width="118" height="54" rx="4" fill="#DEE7F3"/>
<rect x="953" y="404" width="3" height="46" rx="1.5" fill="#606675"/>
<rect x="960" y="404" width="97" height="14" fill="#606675"/>
<rect opacity="0.4" x="960" y="422" width="32" height="14" fill="#606675"/>
<rect x="265" y="577" width="118" height="54" rx="4" fill="#F1E5DE"/>
<rect x="269" y="581" width="3" height="46" rx="1.5" fill="#75645D"/>
<rect x="276" y="581" width="97" height="14" fill="#75645D"/>
<rect opacity="0.4" x="276" y="599" width="32" height="14" fill="#75645D"/>
<rect x="949" y="577" width="118" height="54" rx="4" fill="#F1E5DE"/>
<rect x="953" y="581" width="3" height="46" rx="1.5" fill="#75645D"/>
<rect x="960" y="581" width="97" height="14" fill="#75645D"/>
<rect opacity="0.4" x="960" y="599" width="32" height="14" fill="#75645D"/>
<rect x="539" y="399" width="118" height="54" rx="4" fill="#F1E5DE"/>
<rect x="543" y="403" width="3" height="46" rx="1.5" fill="#75645D"/>
<rect x="550" y="403" width="97" height="14" fill="#75645D"/>
<rect opacity="0.4" x="550" y="421" width="32" height="14" fill="#75645D"/>
<rect x="265" y="635" width="118" height="54" rx="4" fill="#F1E5DE"/>
<rect x="269" y="639" width="3" height="46" rx="1.5" fill="#75645D"/>
<rect x="276" y="639" width="97" height="14" fill="#75645D"/>
<rect opacity="0.4" x="276" y="657" width="32" height="14" fill="#75645D"/>
<rect x="949" y="635" width="118" height="54" rx="4" fill="#F1E5DE"/>
<rect x="953" y="639" width="3" height="46" rx="1.5" fill="#75645D"/>
<rect x="960" y="639" width="97" height="14" fill="#75645D"/>
<rect opacity="0.4" x="960" y="657" width="32" height="14" fill="#75645D"/>
<rect x="128" y="695" width="118" height="54" rx="4" fill="#F1E5DE"/>
<rect x="132" y="699" width="3" height="46" rx="1.5" fill="#75645D"/>
<rect x="139" y="699" width="97" height="14" fill="#75645D"/>
<rect opacity="0.4" x="139" y="717" width="32" height="14" fill="#75645D"/>
<rect x="812" y="695" width="118" height="54" rx="4" fill="#F1E5DE"/>
<rect x="816" y="699" width="3" height="46" rx="1.5" fill="#75645D"/>
<rect x="823" y="699" width="97" height="14" fill="#75645D"/>
<rect opacity="0.4" x="823" y="717" width="32" height="14" fill="#75645D"/>
<rect x="128" y="871" width="118" height="54" rx="4" fill="#F1DDDE"/>
<rect x="132" y="875" width="3" height="46" rx="1.5" fill="#935E66"/>
<rect x="139" y="875" width="97" height="14" fill="#935E66"/>
<rect opacity="0.4" x="139" y="893" width="32" height="14" fill="#935E66"/>
<rect x="812" y="871" width="118" height="54" rx="4" fill="#F1DDDE"/>
<rect x="816" y="875" width="3" height="46" rx="1.5" fill="#935E66"/>
<rect x="823" y="875" width="97" height="14" fill="#935E66"/>
<rect opacity="0.4" x="823" y="893" width="32" height="14" fill="#935E66"/>
<rect x="265" y="871" width="118" height="54" rx="4" fill="#F1DDDE"/>
<rect x="269" y="875" width="3" height="46" rx="1.5" fill="#935E66"/>
<rect x="276" y="875" width="97" height="14" fill="#935E66"/>
<rect opacity="0.4" x="276" y="893" width="32" height="14" fill="#935E66"/>
<rect x="949" y="871" width="118" height="54" rx="4" fill="#F1DDDE"/>
<rect x="953" y="875" width="3" height="46" rx="1.5" fill="#935E66"/>
<rect x="960" y="875" width="97" height="14" fill="#935E66"/>
<rect opacity="0.4" x="960" y="893" width="32" height="14" fill="#935E66"/>
<rect x="402" y="871" width="118" height="54" rx="4" fill="#F1DDDE"/>
<rect x="406" y="875" width="3" height="46" rx="1.5" fill="#935E66"/>
<rect x="413" y="875" width="97" height="14" fill="#935E66"/>
<rect opacity="0.4" x="413" y="893" width="32" height="14" fill="#935E66"/>
<rect x="1086" y="871" width="118" height="54" rx="4" fill="#F1DDDE"/>
<rect x="1090" y="875" width="3" height="46" rx="1.5" fill="#935E66"/>
<rect x="1097" y="875" width="97" height="14" fill="#935E66"/>
<rect opacity="0.4" x="1097" y="893" width="32" height="14" fill="#935E66"/>
<rect x="539" y="871" width="118" height="54" rx="4" fill="#F1DDDE"/>
<rect x="543" y="875" width="3" height="46" rx="1.5" fill="#935E66"/>
<rect x="550" y="875" width="97" height="14" fill="#935E66"/>
<rect opacity="0.4" x="550" y="893" width="32" height="14" fill="#935E66"/>
<rect x="676" y="871" width="118" height="54" rx="4" fill="#F1DDDE"/>
<rect x="680" y="875" width="3" height="46" rx="1.5" fill="#935E66"/>
<rect x="687" y="875" width="97" height="14" fill="#935E66"/>
<rect opacity="0.4" x="687" y="893" width="32" height="14" fill="#935E66"/>
<rect x="676" y="399" width="118" height="54" rx="4" fill="#EEDDF1"/>
<rect x="680" y="403" width="3" height="46" rx="1.5" fill="#765C78"/>
<rect x="687" y="403" width="97" height="14" fill="#765C78"/>
<rect opacity="0.4" x="687" y="421" width="32" height="14" fill="#765C78"/>
<rect x="539" y="517" width="118" height="54" rx="4" fill="#EEDDF1"/>
<rect x="543" y="521" width="3" height="46" rx="1.5" fill="#765C78"/>
<rect x="550" y="521" width="97" height="14" fill="#765C78"/>
<rect opacity="0.4" x="550" y="539" width="32" height="14" fill="#765C78"/>
<rect x="1086" y="399" width="118" height="54" rx="4" fill="#EEDDF1"/>
<rect x="1090" y="403" width="3" height="46" rx="1.5" fill="#765C78"/>
<rect x="1097" y="403" width="97" height="14" fill="#765C78"/>
<rect opacity="0.4" x="1097" y="421" width="32" height="14" fill="#765C78"/>
<rect x="1086" y="340" width="118" height="54" rx="4" fill="#EEDDF1"/>
<rect x="1090" y="344" width="3" height="46" rx="1.5" fill="#765C78"/>
<rect x="1097" y="344" width="97" height="14" fill="#765C78"/>
<rect opacity="0.4" x="1097" y="362" width="32" height="14" fill="#765C78"/>
<rect x="128" y="753" width="118" height="54" rx="4" fill="#EEDDF1"/>
<rect x="132" y="757" width="3" height="46" rx="1.5" fill="#765C78"/>
<rect x="139" y="757" width="78" height="14" fill="#765C78"/>
<rect opacity="0.4" x="139" y="775" width="32" height="14" fill="#765C78"/>
<rect x="812" y="753" width="118" height="54" rx="4" fill="#EEDDF1"/>
<rect x="816" y="757" width="3" height="46" rx="1.5" fill="#765C78"/>
<rect x="823" y="757" width="78" height="14" fill="#765C78"/>
<rect opacity="0.4" x="823" y="775" width="32" height="14" fill="#765C78"/>
<rect x="265" y="753" width="118" height="54" rx="4" fill="#EEDDF1"/>
<rect x="269" y="757" width="3" height="46" rx="1.5" fill="#765C78"/>
<rect x="276" y="757" width="68" height="14" fill="#765C78"/>
<rect opacity="0.4" x="276" y="775" width="32" height="14" fill="#765C78"/>
<rect x="949" y="753" width="118" height="54" rx="4" fill="#EEDDF1"/>
<rect x="953" y="757" width="3" height="46" rx="1.5" fill="#765C78"/>
<rect x="960" y="757" width="68" height="14" fill="#765C78"/>
<rect opacity="0.4" x="960" y="775" width="32" height="14" fill="#765C78"/>
<rect x="402" y="753" width="118" height="54" rx="4" fill="#EEDDF1"/>
<rect x="406" y="757" width="3" height="46" rx="1.5" fill="#765C78"/>
<rect x="413" y="757" width="56" height="14" fill="#765C78"/>
<rect opacity="0.4" x="413" y="775" width="32" height="14" fill="#765C78"/>
<rect x="1086" y="753" width="118" height="54" rx="4" fill="#EEDDF1"/>
<rect x="1090" y="757" width="3" height="46" rx="1.5" fill="#765C78"/>
<rect x="1097" y="757" width="56" height="14" fill="#765C78"/>
<rect opacity="0.4" x="1097" y="775" width="32" height="14" fill="#765C78"/>
<rect x="539" y="753" width="118" height="54" rx="4" fill="#EEDDF1"/>
<rect x="543" y="757" width="3" height="46" rx="1.5" fill="#765C78"/>
<rect x="550" y="757" width="59" height="14" fill="#765C78"/>
<rect opacity="0.4" x="550" y="775" width="32" height="14" fill="#765C78"/>
<rect x="676" y="753" width="118" height="54" rx="4" fill="#EEDDF1"/>
<rect x="680" y="757" width="3" height="46" rx="1.5" fill="#765C78"/>
<rect x="687" y="757" width="60" height="14" fill="#765C78"/>
<rect opacity="0.4" x="687" y="775" width="32" height="14" fill="#765C78"/>
<rect x="265" y="340" width="118" height="54" rx="4" fill="#DFF1E7"/>
<rect x="269" y="344" width="3" height="46" rx="1.5" fill="#0B7146"/>
<rect x="276" y="344" width="81" height="14" fill="#0B7146"/>
<rect opacity="0.4" x="276" y="362" width="32" height="14" fill="#0B7146"/>
<rect x="949" y="340" width="118" height="54" rx="4" fill="#DFF1E7"/>
<rect x="953" y="344" width="3" height="46" rx="1.5" fill="#0B7146"/>
<rect x="960" y="344" width="81" height="14" fill="#0B7146"/>
<rect opacity="0.4" x="960" y="362" width="32" height="14" fill="#0B7146"/>
<rect x="402" y="340" width="118" height="54" rx="4" fill="#DFF1E7"/>
<rect x="406" y="344" width="3" height="46" rx="1.5" fill="#0B7146"/>
<rect x="413" y="344" width="95" height="14" fill="#0B7146"/>
<rect opacity="0.4" x="413" y="362" width="32" height="14" fill="#0B7146"/>
<rect x="265" y="517" width="118" height="54" rx="4" fill="#DFF1E7"/>
<rect x="269" y="521" width="3" height="46" rx="1.5" fill="#0B7146"/>
<rect x="276" y="521" width="59" height="14" fill="#0B7146"/>
<rect opacity="0.4" x="276" y="539" width="32" height="14" fill="#0B7146"/>
<rect x="949" y="517" width="118" height="54" rx="4" fill="#DFF1E7"/>
<rect x="953" y="521" width="3" height="46" rx="1.5" fill="#0B7146"/>
<rect x="960" y="521" width="59" height="14" fill="#0B7146"/>
<rect opacity="0.4" x="960" y="539" width="32" height="14" fill="#0B7146"/>
<rect x="402" y="635" width="118" height="54" rx="4" fill="#DFF1E7"/>
<rect x="406" y="639" width="3" height="46" rx="1.5" fill="#0B7146"/>
<rect x="413" y="639" width="93" height="14" fill="#0B7146"/>
<rect opacity="0.4" x="413" y="657" width="32" height="14" fill="#0B7146"/>
<rect x="1086" y="635" width="118" height="54" rx="4" fill="#DFF1E7"/>
<rect x="1090" y="639" width="3" height="46" rx="1.5" fill="#0B7146"/>
<rect x="1097" y="639" width="93" height="14" fill="#0B7146"/>
<rect opacity="0.4" x="1097" y="657" width="32" height="14" fill="#0B7146"/>
<rect x="676" y="635" width="118" height="54" rx="4" fill="#DFF1E7"/>
<rect x="680" y="639" width="3" height="46" rx="1.5" fill="#0B7146"/>
<rect x="687" y="639" width="59" height="14" fill="#0B7146"/>
<rect opacity="0.4" x="687" y="657" width="32" height="14" fill="#0B7146"/>
<rect x="128" y="635" width="118" height="54" rx="4" fill="#DFF1E7"/>
<rect x="132" y="639" width="3" height="46" rx="1.5" fill="#0B7146"/>
<rect x="139" y="639" width="59" height="14" fill="#0B7146"/>
<rect opacity="0.4" x="139" y="657" width="32" height="14" fill="#0B7146"/>
<rect x="812" y="635" width="118" height="54" rx="4" fill="#DFF1E7"/>
<rect x="816" y="639" width="3" height="46" rx="1.5" fill="#0B7146"/>
<rect x="823" y="639" width="59" height="14" fill="#0B7146"/>
<rect opacity="0.4" x="823" y="657" width="32" height="14" fill="#0B7146"/>
<rect x="265" y="812" width="118" height="54" rx="4" fill="#DFF1E7"/>
<rect x="269" y="816" width="3" height="46" rx="1.5" fill="#0B7146"/>
<rect x="276" y="816" width="91" height="14" fill="#0B7146"/>
<rect opacity="0.4" x="276" y="834" width="32" height="14" fill="#0B7146"/>
<rect x="949" y="812" width="118" height="54" rx="4" fill="#DFF1E7"/>
<rect x="953" y="816" width="3" height="46" rx="1.5" fill="#0B7146"/>
<rect x="960" y="816" width="91" height="14" fill="#0B7146"/>
<rect opacity="0.4" x="960" y="834" width="32" height="14" fill="#0B7146"/>
<rect x="539" y="812" width="118" height="54" rx="4" fill="#DFF1E7"/>
<rect x="543" y="816" width="3" height="46" rx="1.5" fill="#0B7146"/>
<rect x="550" y="816" width="59" height="14" fill="#0B7146"/>
<rect opacity="0.4" x="550" y="834" width="32" height="14" fill="#0B7146"/>
<rect x="402" y="695" width="118" height="54" rx="4" fill="#DFF1E7"/>
<rect x="406" y="699" width="3" height="46" rx="1.5" fill="#0B7146"/>
<rect x="413" y="699" width="59" height="14" fill="#0B7146"/>
<rect opacity="0.4" x="413" y="717" width="32" height="14" fill="#0B7146"/>
<rect x="1086" y="695" width="118" height="54" rx="4" fill="#DFF1E7"/>
<rect x="1090" y="699" width="3" height="46" rx="1.5" fill="#0B7146"/>
<rect x="1097" y="699" width="59" height="14" fill="#0B7146"/>
<rect opacity="0.4" x="1097" y="717" width="32" height="14" fill="#0B7146"/>
<rect x="539" y="340" width="118" height="54" rx="4" fill="#DFF1E7"/>
<rect x="543" y="344" width="3" height="46" rx="1.5" fill="#0B7146"/>
<rect x="550" y="344" width="74" height="14" fill="#0B7146"/>
<rect opacity="0.4" x="550" y="362" width="32" height="14" fill="#0B7146"/>
<rect x="676" y="340" width="118" height="54" rx="4" fill="#DFF1E7"/>
<rect x="680" y="344" width="3" height="46" rx="1.5" fill="#0B7146"/>
<rect x="687" y="344" width="85" height="14" fill="#0B7146"/>
<rect opacity="0.4" x="687" y="362" width="32" height="14" fill="#0B7146"/>
<rect x="402" y="812" width="118" height="54" rx="4" fill="#F1E5DE"/>
<rect x="406" y="816" width="3" height="46" rx="1.5" fill="#75645D"/>
<rect x="413" y="816" width="97" height="14" fill="#75645D"/>
<rect opacity="0.4" x="413" y="834" width="32" height="14" fill="#75645D"/>
<rect x="1086" y="812" width="118" height="54" rx="4" fill="#F1E5DE"/>
<rect x="1090" y="816" width="3" height="46" rx="1.5" fill="#75645D"/>
<rect x="1097" y="816" width="97" height="14" fill="#75645D"/>
<rect opacity="0.4" x="1097" y="834" width="32" height="14" fill="#75645D"/>
<rect x="265" y="695" width="118" height="54" rx="4" fill="#DFF1E7"/>
<rect x="269" y="699" width="3" height="46" rx="1.5" fill="#0B7146"/>
<rect x="276" y="699" width="59" height="14" fill="#0B7146"/>
<rect opacity="0.4" x="276" y="717" width="32" height="14" fill="#0B7146"/>
<rect x="949" y="695" width="118" height="54" rx="4" fill="#DFF1E7"/>
<rect x="953" y="699" width="3" height="46" rx="1.5" fill="#0B7146"/>
<rect x="960" y="699" width="59" height="14" fill="#0B7146"/>
<rect opacity="0.4" x="960" y="717" width="32" height="14" fill="#0B7146"/>
</g>
<defs>
<filter id="filter0_d_1_1885" x="-168" y="0" width="1693" height="1255" filterUnits="userSpaceOnUse" color-interpolation-filters="sRGB">
<feFlood flood-opacity="0" result="BackgroundImageFix"/>
<feColorMatrix in="SourceAlpha" type="matrix" values="0 0 0 0 0 0 0 0 0 0 0 0 0 0 0 0 0 0 127 0" result="hardAlpha"/>
<feOffset dy="4"/>
<feGaussianBlur stdDeviation="82"/>
<feComposite in2="hardAlpha" operator="out"/>
<feColorMatrix type="matrix" values="0 0 0 0 0 0 0 0 0 0 0 0 0 0 0 0 0 0 0.1 0"/>
<feBlend mode="normal" in2="BackgroundImageFix" result="effect1_dropShadow_1_1885"/>
<feBlend mode="normal" in="SourceGraphic" in2="effect1_dropShadow_1_1885" result="shape"/>
</filter>
</defs>
</svg>