<svg xmlns="http://www.w3.org/2000/svg" fill="none" viewBox="-4 160 1365 927">
<g filter="url(#filter0_d_1_1171)">
<rect x="20" y="184" width="1317" height="879" rx="40" fill="white" shape-rendering="crispEdges"/>
<rect x="8" y="172" width="1341" height="903" rx="52" stroke="white" stroke-opacity="0.1" stroke-width="24" shape-rendering="crispEdges"/>
<circle cx="45.5" cy="221.5" r="6.5" fill="#E05758"/>
<circle cx="67.5" cy="221.5" r="6.5" fill="#F0D149"/>
<circle cx="89.5" cy="221.5" r="6.5" fill="#68D443"/>
<rect x="112" y="206" width="55" height="32" rx="8" fill="#E1E1E1" fill-opacity="0.5"/>
<path opacity="0.3" d="M82 273.783V276H72V273.783H82ZM78.2725 270V280H75.7375V270H78.2725Z" fill="#2E2E2E"/>
<line opacity="0.7" x1="427.5" y1="184" x2="427.5" y2="249" stroke="#E1E1E1"/>
<line opacity="0.7" x1="118.5" y1="293" x2="118.5" y2="1063" stroke="#E1E1E1"/>
<line opacity="0.7" x1="255.5" y1="293" x2="255.5" y2="1063" stroke="#E1E1E1"/>
<line opacity="0.7" x1="392.5" y1="293" x2="392.5" y2="1063" stroke="#E1E1E1"/>
<line opacity="0.7" x1="529.5" y1="293" x2="529.5" y2="1063" stroke="#E1E1E1"/>
<line opacity="0.7" x1="666.5" y1="293" x2="666.5" y2="1063" stroke="#E1E1E1"/>
<line opacity="0.7" x1="803.5" y1="293" x2="803.5" y2="1063" stroke="#E1E1E1"/>
<line opacity="0.7" x1="951.5" y1="293" x2="951.5" y2="1063" stroke="#E1E1E1"/>
<line opacity="0.7" x1="1099.5" y1="293" x2="1099.5" y2="1063" stroke="#E1E1E1"/>
<line opacity="0.7" x1="1247.5" y1="293" x2="1247.5" y2="1063" stroke="#E1E1E1"/>
<line opacity="0.7" x1="1328.5" y1="249" x2="1328.5" y2="1063" stroke="#E1E1E1"/>
<line opacity="0.7" x1="38.5" y1="249" x2="38.5" y2="1063" stroke="#E1E1E1"/>
<line opacity="0.8" x1="39" y1="319.5" x2="1328" y2="319.5" stroke="#E1E1E1"/>
<line opacity="0.8" x1="39" y1="293.5" x2="1328" y2="293.5" stroke="#E1E1E1"/>
<line opacity="0.8" x1="39" y1="248.5" x2="1329" y2="248.5" stroke="#E1E1E1"/>
<line opacity="0.8" x1="118" y1="337.5" x2="1328" y2="337.5" stroke="#E1E1E1"/>
<line opacity="0.3" x1="118" y1="396.5" x2="1328" y2="396.5" stroke="#E1E1E1"/>
<line opacity="0.3" x1="118" y1="455.5" x2="1328" y2="455.5" stroke="#E1E1E1"/>
<line opacity="0.3" x1="118" y1="514.5" x2="1328" y2="514.5" stroke="#E1E1E1"/>
<line opacity="0.3" x1="118" y1="573.5" x2="1328" y2="573.5" stroke="#E1E1E1"/>
<line opacity="0.3" x1="118" y1="632.5" x2="1328" y2="632.5" stroke="#E1E1E1"/>
<line opacity="0.3" x1="118" y1="691.5" x2="1328" y2="691.5" stroke="#E1E1E1"/>
<line opacity="0.3" x1="118" y1="750.5" x2="1328" y2="750.5" stroke="#E1E1E1"/>
<line opacity="0.3" x1="118" y1="809.5" x2="1328" y2="809.5" stroke="#E1E1E1"/>
<line opacity="0.3" x1="118" y1="868.5" x2="1328" y2="868.5" stroke="#E1E1E1"/>
<line opacity="0.3" x1="118" y1="927.5" x2="1328" y2="927.5" stroke="#E1E1E1"/>
<line opacity="0.3" x1="118" y1="986.5" x2="1328" y2="986.5" stroke="#E1E1E1"/>
<path d="M591.318 222.841C591.139 222.649 591.139 222.351 591.318 222.159L595.384 217.799C595.694 217.467 596.25 217.686 596.25 218.14L596.25 226.86C596.25 227.314 595.694 227.533 595.384 227.201L591.318 222.841Z" fill="#858585"/>
<path d="M632.682 222.841C632.861 222.649 632.861 222.351 632.682 222.159L628.616 217.799C628.306 217.467 627.75 217.686 627.75 218.14L627.75 226.86C627.75 227.314 628.306 227.533 628.616 227.201L632.682 222.841Z" fill="#858585"/>
<rect x="187" y="212" width="47" height="20" fill="#C0C0C0"/>
<rect x="161" y="262" width="47" height="20" fill="#F0F0F0"/>
<rect x="65" y="297" width="47" height="20" fill="#F0F0F0"/>
<rect x="65" y="328" width="47" height="20" fill="#F0F0F0"/>
<rect x="65" y="387" width="47" height="20" fill="#F0F0F0"/>
<rect x="65" y="446" width="47" height="20" fill="#F0F0F0"/>
<rect x="65" y="505" width="47" height="20" fill="#F0F0F0"/>
<rect x="65" y="564" width="47" height="20" fill="#F0F0F0"/>
<rect x="65" y="623" width="47" height="20" fill="#F0F0F0"/>
<rect x="65" y="682" width="47" height="20" fill="#F0F0F0"/>
<rect x="65" y="741" width="47" height="20" fill="#F0F0F0"/>
<rect x="65" y="800" width="47" height="20" fill="#F0F0F0"/>
<rect x="65" y="859" width="47" height="20" fill="#F0F0F0"/>
<rect x="65" y="918" width="47" height="20" fill="#F0F0F0"/>
<rect x="65" y="977" width="47" height="20" fill="#F0F0F0"/>
<rect x="299" y="262" width="47" height="20" fill="#F0F0F0"/>
<rect x="437" y="262" width="47" height="20" fill="#F0F0F0"/>
<rect x="575" y="262" width="47" height="20" fill="#F0F0F0"/>
<rect x="713" y="262" width="47" height="20" fill="#F0F0F0"/>
<rect x="851" y="262" width="47" height="20" fill="#F0F0F0"/>
<rect x="989" y="262" width="47" height="20" fill="#F0F0F0"/>
<rect x="1127" y="262" width="47" height="20" fill="#F0F0F0"/>
<rect x="1265" y="262" width="47" height="20" fill="#F0F0F0"/>
<rect x="255" y="212" width="47" height="20" fill="#C0C0C0"/>
<rect x="386" y="212" width="20" height="20" fill="#C0C0C0"/>
<rect x="662" y="212" width="38" height="20" fill="#C0C0C0"/>
<rect x="1261" y="212" width="38" height="20" fill="#C0C0C0"/>
<rect x="448" y="212" width="68" height="20" fill="#2E2E2E"/>
</g>
<defs>
<filter id="filter0_d_1_1171" x="-168" y="0" width="1693" height="1255" filterUnits="userSpaceOnUse" color-interpolation-filters="sRGB">
<feFlood flood-opacity="0" result="BackgroundImageFix"/>
<feColorMatrix in="SourceAlpha" type="matrix" values="0 0 0 0 0 0 0 0 0 0 0 0 0 0 0 0 0 0 127 0" result="hardAlpha"/>
<feOffset dy="4"/>
<feGaussianBlur stdDeviation="82"/>
<feComposite in2="hardAlpha" operator="out"/>
<feColorMatrix type="matrix" values="0 0 0 0 0 0 0 0 0 0 0 0 0 0 0 0 0 0 0.1 0"/>
<feBlend mode="normal" in2="BackgroundImageFix" result="effect1_dropShadow_1_1171"/>
<feBlend mode="normal" in="SourceGraphic" in2="effect1_dropShadow_1_1171" result="shape"/>
</filter>
</defs>
</svg>