<svg width="42" height="51" viewBox="0 0 42 51" fill="none" xmlns="http://www.w3.org/2000/svg">
<path d="M11.5625 0.125C5.66975 0.125 0.875 4.91975 0.875 10.8125C0.875 13.8759 2.17775 16.6335 4.25 18.5842V10.8125C4.25 6.7805 7.5305 3.5 11.5625 3.5C15.527 3.5 18.7568 6.67344 18.864 10.6125C18.8457 10.769 18.8494 10.9273 18.875 11.0828V18.5842C20.5577 17.0002 21.7204 14.88 22.1028 12.5H35.6138L32.8694 15.2444C32.7074 15.3999 32.5781 15.5861 32.4891 15.7922C32.4 15.9983 32.3529 16.2201 32.3507 16.4446C32.3484 16.6691 32.3909 16.8918 32.4758 17.0997C32.5606 17.3075 32.6861 17.4964 32.8449 17.6551C33.0036 17.8139 33.1925 17.9394 33.4003 18.0242C33.6082 18.1091 33.8309 18.1516 34.0554 18.1493C34.2799 18.1471 34.5017 18.1 34.7078 18.0109C34.9139 17.9219 35.1001 17.7926 35.2556 17.6306L40.7356 12.1506C40.9418 11.9925 41.1087 11.7889 41.2233 11.5556C41.3379 11.3224 41.3971 11.0658 41.3962 10.8059C41.3954 10.5461 41.3345 10.2899 41.2184 10.0574C41.1023 9.82491 40.9341 9.62237 40.7268 9.46558L35.2556 3.99438C35.0983 3.8324 34.9101 3.70363 34.7022 3.61569C34.4942 3.52775 34.2707 3.48243 34.0449 3.48242C33.7091 3.4825 33.3809 3.58278 33.1024 3.77042C32.8239 3.95807 32.6076 4.22454 32.4814 4.53575C32.3552 4.84696 32.3247 5.18876 32.3938 5.5174C32.4629 5.84605 32.6285 6.14661 32.8694 6.38062L35.6138 9.125H22.1028C21.2896 4.03297 16.8798 0.125 11.5625 0.125ZM11.5625 5.75C8.78656 5.75 6.5 8.03656 6.5 10.8125V27.6545C6.25306 28.0122 5.49377 29.0923 4.48071 30.8296C3.89771 31.8294 3.30696 32.9176 2.84375 33.9761C2.38054 35.0346 2 36.0076 2 37.1423C2 39.3795 3.06102 41.4446 4.3335 43.3496C5.60597 45.2546 7.15991 46.9899 8.45557 48.3176C10.3186 50.2262 13.0065 51.0844 15.6274 50.6292L24.8076 49.0383C27.8716 48.5068 30.4372 46.406 31.5686 43.5122C32.5713 40.9472 33.7649 37.8383 34.2559 36.1294C35.7702 30.8573 32.2409 25.5468 27.0203 24.1521C26.7457 24.0781 26.4765 24.0191 26.2117 23.9697C26.2087 23.969 26.2058 23.9683 26.2029 23.9675L16.625 22.2317V10.8125C16.625 8.03656 14.3384 5.75 11.5625 5.75ZM11.5625 9.125C12.5148 9.125 13.25 9.86019 13.25 10.8125V23.6423C13.2499 24.0378 13.3886 24.4207 13.642 24.7243C13.8954 25.0279 14.2474 25.2329 14.6365 25.3035L25.6008 27.2876H25.592C25.7849 27.3235 25.9718 27.3637 26.1458 27.4106L26.1501 27.4128C29.6888 28.3582 31.9711 31.8613 31.0127 35.1978C30.6326 36.5203 29.4171 39.7444 28.4243 42.2839C27.7198 44.0859 26.1359 45.3836 24.2319 45.7139L15.0518 47.3047H15.0496C13.5125 47.5717 11.9548 47.0731 10.8704 45.9622C9.66514 44.7271 8.23191 43.1054 7.1416 41.4731C6.05129 39.8409 5.375 38.189 5.375 37.1423C5.375 36.994 5.55696 36.1992 5.9375 35.3296C6.31804 34.46 6.85229 33.4597 7.39429 32.5303C8.47828 30.6714 9.56958 29.1091 9.56958 29.1091C9.76807 28.8258 9.87469 28.4883 9.875 28.1423V10.8125C9.875 9.86019 10.6102 9.125 11.5625 9.125Z" fill="#111111"/>
</svg>
