<svg width="159" height="105" viewBox="0 0 159 105" fill="none" xmlns="http://www.w3.org/2000/svg">
<path fill-rule="evenodd" clip-rule="evenodd" d="M15.6262 44.1446C8.5899 46.0392 3.30117 50.9344 0.970074 57.7092C0.0725357 60.3183 3.32722e-05 62.0379 3.32722e-05 80.6662C3.32722e-05 102.701 -0.0424689 102.384 2.91066 102.367C5.84928 102.35 5.72828 103.175 6.00029 81.2677L6.2503 61.1228L7.64536 58.2817C9.16043 55.1966 11.3385 53.0095 14.6397 51.2589C17.8468 49.5583 23.8326 49.6603 27.2962 51.4749C30.2683 53.032 32.7189 55.6496 34.1985 58.8472C35.199 61.0093 35.264 62.1259 35.5016 81.2677C35.7776 103.505 35.6121 102.509 38.9902 102.255C41.9378 102.034 41.9863 101.702 41.9913 81.8737C41.9938 72.1108 41.7813 62.8134 41.5193 61.2123C39.5297 49.0643 27.2982 41.0015 15.6262 44.1446ZM139.618 45.1506L138.506 45.9287V73.3244C138.506 99.662 138.543 100.753 139.462 101.585C140.809 102.804 143.075 102.438 143.862 100.875C144.344 99.918 144.493 93.4312 144.499 73.2259L144.506 46.8267L143.279 45.5997C141.849 44.1691 141.142 44.0826 139.618 45.1506ZM49.5022 45.8722C48.5361 46.8382 48.5021 47.5387 48.5021 66.5706C48.5021 84.9068 48.5716 86.4944 49.5102 89.5316C51.7993 96.9429 58.516 102.627 66.5054 103.914C77.0518 105.612 87.9653 97.7219 89.9969 86.9309C90.2819 85.4174 90.5039 76.151 90.5039 65.782V47.3267L89.2764 46.0997C87.8853 44.7081 86.6377 44.5486 85.2242 45.5812C84.2981 46.2577 84.2421 47.2287 84.0036 66.7071L83.7536 87.1239L82.4231 89.6241C79.6174 94.8968 75.1028 97.6219 69.253 97.5744C63.6893 97.5294 59.0276 94.6868 56.3735 89.7211C55.2779 87.6715 55.2469 87.16 55.0024 67.2031L54.7524 46.7827L53.5718 45.8272C52.0573 44.6016 50.7582 44.6161 49.5022 45.8722Z" fill="white"/>
<path fill-rule="evenodd" clip-rule="evenodd" d="M157.007 24.2148C154.585 24.6158 149.322 26.4499 146.555 27.8574C135.679 33.3887 124.041 45.5317 115.49 60.2718L113.593 63.542L100.708 37.7863L98.1057 40.1254C96.6751 41.412 95.5111 42.7251 95.5196 43.0436C95.5281 43.3616 99.7813 51.5749 104.971 61.2949C112.662 75.698 114.469 78.7506 114.738 77.7956C114.919 77.151 115.266 76.1735 115.509 75.6235C115.752 75.0734 116.435 73.4984 117.027 72.1233C121.289 62.2294 128.371 50.0584 133.421 43.9506C139.284 36.8598 149.929 28.3899 157.028 25.1678C159.663 23.9713 159.658 23.7752 157.007 24.2148Z" fill="#FF7A00"/>
<rect x="34" y="20.9644" width="81" height="44" rx="22" transform="rotate(-15 34 20.9644)" fill="#FF7A00"/>
<path d="M57.238 46.8314L52.0699 27.5438L54.2954 26.9475L59.4635 46.2351L57.238 46.8314ZM72.5436 41.0871C71.6011 42.6471 70.1985 43.6767 68.3357 44.1759C66.4728 44.675 64.7433 44.4847 63.1471 43.6049C61.5509 42.7251 60.4966 41.3291 59.9842 39.4168C59.4673 37.4881 59.6824 35.7519 60.6293 34.2084C61.5718 32.6483 62.9744 31.6188 64.8373 31.1196C66.7001 30.6205 68.4296 30.8108 70.0258 31.6906C71.6176 32.5539 72.672 33.9499 73.1888 35.8787C73.7012 37.7909 73.4861 39.5271 72.5436 41.0871ZM68.2588 43.2954C69.3633 42.9994 70.1903 42.3273 70.7398 41.2789C71.3058 40.2261 71.3702 38.8837 70.9329 37.2517C70.4779 35.5537 69.6743 34.1701 68.5219 33.1007C67.3652 32.0148 66.1604 31.6397 64.9075 31.9754C63.803 32.2713 62.97 32.9539 62.4084 34.0232C61.8589 35.0715 61.8028 36.4117 62.2401 38.0438C62.695 39.7417 63.4987 41.1254 64.651 42.1948C65.8033 43.2642 67.0059 43.6311 68.2588 43.2954ZM82.5242 40.3741C80.6284 40.882 78.9318 40.6829 77.4345 39.7766C75.9537 38.8659 74.9615 37.4709 74.4579 35.5916C73.919 33.5804 74.117 31.8135 75.0518 30.2909C75.9867 28.7682 77.3608 27.764 79.1741 27.2781C80.6248 26.8894 81.883 26.8703 82.9487 27.2208C84.01 27.5548 84.6356 28.0763 84.8256 28.7851C84.9183 29.1313 84.8945 29.4381 84.7541 29.7054C84.6302 29.9683 84.4199 30.1395 84.1231 30.219C83.4637 30.3957 82.8835 30.1094 82.3824 29.3603C82.0497 28.778 81.6369 28.3585 81.1441 28.1019C80.6513 27.8452 79.968 27.8339 79.0943 28.0681C77.9568 28.3728 77.1237 29.0554 76.5951 30.1159C76.083 31.1719 76.0323 32.4664 76.4431 33.9995C76.9334 35.8294 77.7694 37.1691 78.9512 38.0186C80.1494 38.8636 81.4821 39.0896 82.9493 38.6965C85.2737 38.0737 86.4393 36.4892 86.4461 33.943L87.1138 33.7641C87.3181 37.2962 85.7882 39.4995 82.5242 40.3741ZM93.0607 37.5508C91.9067 37.86 90.8711 37.8195 89.9538 37.4292C89.032 37.0224 88.4408 36.3327 88.1802 35.3601C87.5309 32.9368 89.8518 30.7512 95.1429 28.8034L94.9043 27.9132C94.5465 26.5779 94.0716 25.6627 93.4796 25.1676C92.8875 24.6725 92.1217 24.5509 91.182 24.8026C90.1435 25.0809 89.491 25.5473 89.2246 26.2017C89.1204 26.4063 89.0767 26.6389 89.0935 26.8994C89.1224 27.1391 89.1953 27.4111 89.3122 27.7154C89.4456 28.0154 89.5167 28.1819 89.5255 28.2149C89.6139 28.5446 89.5856 28.8348 89.4408 29.0857C89.3125 29.3321 89.0835 29.4994 88.7538 29.5878C88.4076 29.6805 88.1008 29.6567 87.8335 29.5163C87.5783 29.355 87.3998 29.0848 87.2982 28.7056C87.0597 27.8154 87.3032 26.9109 88.0288 25.9921C88.7544 25.0732 89.7931 24.4327 91.1449 24.0705C92.7274 23.6465 94.0011 23.6851 94.9658 24.1863C95.9471 24.6832 96.6652 25.7806 97.1201 27.4785L98.6193 33.1725C98.7783 33.766 98.9569 34.1687 99.1551 34.3806C99.3653 34.5717 99.6352 34.623 99.9649 34.5347C100.525 34.3845 100.899 33.9311 101.085 33.1745L101.54 33.2911C101.339 34.6523 100.613 35.5008 99.3596 35.8365C98.7167 36.0088 98.1422 35.9419 97.6362 35.6357C97.1466 35.3252 96.7891 34.7496 96.5639 33.9088L96.3783 33.2164C96.458 35.492 95.3521 36.9368 93.0607 37.5508ZM93.8144 36.2092C94.6386 35.9884 95.2762 35.4995 95.7271 34.7426C96.1946 33.9813 96.2604 32.9742 95.9247 31.7213L95.3019 29.3969C93.5262 30.1554 92.2123 30.9227 91.3601 31.6987C90.52 32.4539 90.2347 33.3343 90.5041 34.3399C90.6941 35.0487 91.0883 35.5969 91.6868 35.9842C92.2974 36.3507 93.0066 36.4257 93.8144 36.2092ZM102.835 34.6139L97.6665 15.3262L99.892 14.7299L105.06 34.0175L102.835 34.6139Z" fill="white"/>
</svg>
