<svg width="325" height="52" viewBox="0 0 325 52" fill="none" xmlns="http://www.w3.org/2000/svg">
<path d="M195.341 18.2108L199.836 30.1664H191.125L195.341 18.2108ZM193.655 14.2256L183.821 40.4137H187.474L190.003 33.2974H200.96L203.49 40.4137H207.142L197.309 14.2256H193.656H193.655ZM246.754 40.4137H250.125V14.2256H246.754V40.4137ZM212.185 25.0416C213.31 23.3333 215.557 21.9105 217.805 21.9105C222.3 21.9105 224.548 25.0416 224.548 29.5966V40.698H221.177V30.1652C221.177 26.4644 219.212 25.0427 216.682 25.0427C213.873 25.0427 211.906 27.8894 211.906 30.4507V40.4137H208.535V22.196H211.906L212.186 25.0427L212.185 25.0416ZM227.359 35.0057C227.359 31.0205 231.012 28.7435 235.226 28.7435C237.755 28.7435 239.442 29.3133 240.003 29.8831V29.3133C240.003 26.4666 237.755 25.0427 235.508 25.0427C233.542 25.0427 231.855 25.8968 231.293 27.6051L228.211 26.1801C228.773 24.4718 231.021 21.9094 235.528 21.9094C239.743 21.9094 243.395 24.4718 243.395 29.5955V40.4126H240.304V37.838H240.024C239.181 39.2608 237.214 40.9691 234.123 40.9691C230.47 40.9691 227.38 38.6921 227.38 34.9913L227.359 35.0057ZM240.024 32.7144C240.024 32.7144 238.619 31.5748 235.808 31.5748C232.437 31.5748 231.032 33.5663 231.032 34.9902C231.032 36.9817 232.997 37.8369 234.685 37.8369C237.214 37.8369 240.023 35.56 240.023 32.7144" fill="#757575"/>
<path fill-rule="evenodd" clip-rule="evenodd" d="M254.892 48.3819L258.825 38.9777L251.801 22.4682H255.172L260.51 34.9925L265.848 22.4682H269.219L258.264 48.3819H254.893H254.892ZM304.339 28.4582C303.495 26.179 301.529 24.7573 299.564 24.7573C296.754 24.7573 294.226 27.3197 294.226 31.0195C294.226 34.7192 296.755 37.2816 299.564 37.2816C301.529 37.2816 303.497 35.8588 304.34 33.8662L307.15 35.5744C305.746 38.7055 302.935 40.697 299.564 40.697C294.787 40.697 290.854 36.4264 290.854 31.0195C290.854 25.326 294.787 21.3408 299.564 21.3408C302.935 21.3408 305.745 23.3323 307.15 26.4634L304.34 28.4549L304.339 28.4582Z" fill="#757575"/>
<path d="M316.421 40.9829C320.915 40.9829 323.164 38.4205 323.164 35.2894C323.164 28.4575 313.33 31.0188 313.33 27.0358C313.33 25.613 314.455 24.7589 316.421 24.7589C318.386 24.7589 320.354 25.613 321.197 27.0358L323.163 25.0443C322.038 23.6215 318.948 21.6289 316.139 21.6289C311.924 21.6289 309.677 24.1913 309.677 27.3224C309.677 33.8688 319.792 31.593 319.792 35.0084C319.792 36.7166 318.667 37.8551 316.421 37.8551C314.174 37.8551 313.049 36.4323 311.926 35.0084L309.397 36.9999C311.083 38.7081 313.612 40.9851 316.421 40.9851V40.9829ZM284.391 40.4131H287.762V22.1965H284.391V40.4142V40.4131Z" fill="#757575"/>
<path fill-rule="evenodd" clip-rule="evenodd" d="M285.797 13.3721C287.202 13.3721 288.045 14.5116 288.045 15.649C288.045 17.0718 286.92 17.9259 285.797 17.9259C284.675 17.9259 283.55 16.7864 283.55 15.649C283.55 14.5116 284.675 13.3721 285.797 13.3721ZM281.022 37.5687L281.584 40.1311H278.213C275.123 40.1311 273.718 37.8541 273.718 34.4376V25.6131H270.347V22.1977H273.718V16.7897H277.089V22.1977H281.023V25.6131H277.089V35.0173C277.089 37.5797 279.055 37.5797 281.023 37.5797L281.022 37.5687Z" fill="#757575"/>
<path d="M73.9531 24.7578V29.0285H83.7869C83.5063 31.3054 82.6621 33.0137 81.5395 34.151C80.1352 35.5738 77.8867 37.2821 73.9531 37.2821C68.0528 37.2821 63.2763 32.4428 63.2763 26.1806C63.2763 20.2028 68.0528 15.0792 73.9531 15.0792C77.3243 15.0792 79.5728 16.502 81.2698 17.9259L84.0796 15.0792C81.5504 12.8023 78.46 10.8086 73.9651 10.8086C65.8185 10.8086 58.7935 17.6405 58.7935 25.8952C58.7935 34.1499 65.8065 40.9807 73.9542 40.9807C78.449 40.9807 81.8213 39.5579 84.3504 36.7101C87.1602 33.8634 88.0033 30.1636 88.0033 27.0314C88.0033 26.1773 88.0033 25.04 87.7226 24.4691H73.963L73.9531 24.7578ZM98.9586 21.3535C93.6207 21.3535 89.4055 25.3387 89.4055 31.0321C89.4055 36.7256 93.6207 40.7097 98.9586 40.7097C104.297 40.7097 108.512 36.439 108.512 31.0321C108.512 25.3387 104.297 21.3535 98.9586 21.3535ZM98.9586 37.0088C96.1488 37.0088 93.6207 34.4464 93.6207 31.031C93.6207 27.6156 96.1499 25.0532 98.9586 25.0532C101.767 25.0532 104.297 27.3302 104.297 31.031C104.297 34.7319 101.767 37.0088 98.9586 37.0088ZM145.036 23.345C143.911 22.2054 142.226 21.068 139.698 21.068C134.922 21.068 130.707 25.3387 130.707 30.7467C130.707 36.1547 134.923 40.4242 139.698 40.4242C141.946 40.4242 143.913 39.2846 144.754 38.1473H145.035V39.5701C145.035 43.2709 143.069 45.2635 139.979 45.2635C137.45 45.2635 135.764 43.272 135.202 41.8481L131.549 43.2709C132.674 45.8333 135.483 48.9644 139.978 48.9644C145.034 48.9644 149.26 46.1177 149.26 38.7171V21.0703H145.327V23.3472L145.036 23.345ZM140.259 37.0088C137.45 37.0088 135.203 34.4464 135.203 31.031C135.203 27.6156 137.451 25.0532 140.259 25.0532C143.068 25.0532 145.316 27.6156 145.316 31.031C145.316 34.4464 143.068 37.0088 140.259 37.0088ZM119.749 21.3535C114.411 21.3535 110.196 25.3387 110.196 31.0321C110.196 36.7256 114.411 40.7097 119.749 40.7097C125.087 40.7097 129.302 36.439 129.302 31.0321C129.583 25.3387 125.087 21.3535 119.749 21.3535ZM119.749 37.0088C116.939 37.0088 114.411 34.4464 114.411 31.031C114.411 27.6156 116.94 25.0532 119.749 25.0532C122.558 25.0532 125.087 27.3302 125.087 31.031C125.087 34.7319 122.558 37.0088 119.749 37.0088ZM152.341 11.0951H156.556V40.6986H152.341V11.0951ZM168.075 36.9977C165.827 36.9977 164.422 35.8582 163.298 34.151L176.222 28.743L175.66 27.6034C174.817 25.3265 172.289 21.3413 167.513 21.3413C162.457 21.3413 158.523 25.3265 158.523 31.02C158.523 36.428 162.738 40.6975 168.076 40.6975C172.571 40.6975 175.1 37.8508 176.222 36.4268L172.851 34.1499C171.727 35.8582 170.322 36.9966 168.075 36.9966V36.9977ZM167.794 25.0422C169.48 25.0422 170.885 25.8963 171.447 27.3191L162.737 31.02C162.737 26.7493 165.547 25.0422 167.793 25.0422H167.794Z" fill="#757575"/>
<path d="M33.6001 6.23247V44.9231C33.6001 49.2523 36.5511 51.6647 39.6756 51.6647C42.5688 51.6647 45.7512 49.6129 45.7512 44.9231V6.52559C45.7512 2.55686 42.8581 0.0771484 39.6756 0.0771484C36.4932 0.0771484 33.6001 2.81187 33.6001 6.23247Z" fill="#757575"/>
<path opacity="0.5" d="M17.688 25.8712V44.9233C17.688 49.2526 20.6389 51.6649 23.7634 51.6649C26.6566 51.6649 29.839 49.6132 29.839 44.9233V26.1643C29.839 22.1956 26.946 19.7158 23.7634 19.7158C20.581 19.7158 17.688 22.4506 17.688 25.8712Z" fill="#757575"/>
<path opacity="0.4" d="M7.85142 51.6652C11.2068 51.6652 13.927 48.9093 13.927 45.5099C13.927 42.1104 11.2068 39.3545 7.85142 39.3545C4.49599 39.3545 1.77588 42.1104 1.77588 45.5099C1.77588 48.9093 4.49599 51.6652 7.85142 51.6652Z" fill="#757575"/>
</svg>
