<svg width="159" height="52" viewBox="0 0 159 52" fill="none" xmlns="http://www.w3.org/2000/svg">
<g clip-path="url(#clip0_1_271)">
<path d="M0.358887 20.1126C0.358887 9.06259 9.65006 0.0390625 20.7383 0.0390625C26.8559 0.0390625 31.2148 2.44789 34.503 5.58318L30.6412 9.44494C28.3089 7.2273 25.0971 5.54495 20.7383 5.54495C12.6707 5.54495 6.36183 12.0449 6.36183 20.1126C6.36183 28.1802 12.6707 34.6802 20.7383 34.6802C25.9765 34.6802 28.9589 32.5773 30.8707 30.6655C32.4383 29.0979 33.4707 26.842 33.853 23.7832H20.7383V18.3155H39.2059C39.3971 19.3097 39.5118 20.4567 39.5118 21.7567C39.5118 25.8861 38.403 30.9714 34.7707 34.5655C31.253 38.2361 26.7412 40.1861 20.7765 40.1861C9.65006 40.1479 0.358887 31.1626 0.358887 20.1126Z" fill="#757575"/>
<path d="M54.3851 14.3389C47.2351 14.3389 41.4233 19.7683 41.4233 27.2624C41.4233 34.7183 47.2351 40.1859 54.3851 40.1859C61.5351 40.1859 67.3469 34.7183 67.3469 27.2624C67.3469 19.7683 61.5351 14.3389 54.3851 14.3389ZM54.3851 35.0624C50.4851 35.0624 47.0822 31.8506 47.0822 27.2242C47.0822 22.5595 50.4469 19.3859 54.3851 19.3859C58.2851 19.3859 61.688 22.5595 61.688 27.2242C61.688 31.8506 58.2851 35.0624 54.3851 35.0624Z" fill="#757575"/>
<path d="M82.68 14.3389C75.53 14.3389 69.7183 19.7683 69.7183 27.2624C69.7183 34.7183 75.53 40.1859 82.68 40.1859C89.83 40.1859 95.6418 34.7183 95.6418 27.2624C95.6418 19.7683 89.83 14.3389 82.68 14.3389ZM82.68 35.0624C78.78 35.0624 75.3771 31.8506 75.3771 27.2242C75.3771 22.5595 78.7418 19.3859 82.68 19.3859C86.6183 19.3859 89.983 22.5595 89.983 27.2242C89.983 31.8506 86.58 35.0624 82.68 35.0624Z" fill="#757575"/>
<path d="M117.397 15.1037V17.2067H117.206C115.945 15.6773 113.497 14.3008 110.4 14.3008C103.939 14.3008 98.0122 19.9596 98.0122 27.2625C98.0122 34.489 103.939 40.1478 110.4 40.1478C113.497 40.1478 115.945 38.7714 117.206 37.2037H117.397V39.0772C117.397 44.0096 114.759 46.6478 110.515 46.6478C107.036 46.6478 104.895 44.1625 104.015 42.0596L99.0828 44.1243C100.498 47.5655 104.283 51.7714 110.553 51.7714C117.206 51.7714 122.827 47.8714 122.827 38.3125V15.1037H117.397ZM110.898 35.0625C106.998 35.0625 103.709 31.7743 103.709 27.2625C103.709 22.7125 106.998 19.3861 110.898 19.3861C114.759 19.3861 117.78 22.7125 117.78 27.2625C117.818 31.8125 114.759 35.0625 110.898 35.0625Z" fill="#757575"/>
<path d="M132.386 1.41602H126.727V39.3837H132.386V1.41602Z" fill="#757575"/>
<path d="M147.947 35.0624C145.041 35.0624 143.015 33.7242 141.676 31.1624L158.959 24.0124L158.385 22.5595C157.315 19.6536 154.026 14.3389 147.335 14.3389C140.682 14.3389 135.138 19.5771 135.138 27.2624C135.138 34.4889 140.606 40.1859 147.947 40.1859C153.873 40.1859 157.276 36.5536 158.729 34.4506L154.332 31.5065C152.841 33.6477 150.853 35.0624 147.947 35.0624ZM147.526 19.3095C149.782 19.3095 151.694 20.4183 152.306 22.0624L140.759 26.8418C140.606 21.8712 144.621 19.3095 147.526 19.3095Z" fill="#757575"/>
</g>
<defs>
<clipPath id="clip0_1_271">
<rect width="158.773" height="52" fill="white" transform="translate(0.0913086)"/>
</clipPath>
</defs>
</svg>
