<svg width="195" height="74" viewBox="0 0 195 74" fill="none" xmlns="http://www.w3.org/2000/svg">
<g clip-path="url(#clip0_1_281)">
<path fill-rule="evenodd" clip-rule="evenodd" d="M101.01 0.221966C100.903 0.232011 100.477 0.263309 100.064 0.29155C97.7464 0.449935 94.868 0.999767 92.3996 1.75554C88.5085 2.94686 84.32 5.13411 81.1942 7.60692C81.0475 7.72299 80.8938 7.84392 80.8528 7.87565C79.0259 9.28704 76.8483 11.4579 75.1242 13.5864C74.4459 14.4239 73.5299 15.6816 73.5299 15.7755C73.5299 15.8303 132.064 15.8333 132.098 15.7785C132.133 15.7224 130.924 14.0307 130.549 13.6107C130.477 13.5306 130.384 13.4105 130.341 13.3438C130.245 13.1928 129.671 12.5113 129.098 11.867C128.443 11.1302 126.813 9.52675 126.122 8.93921C125.786 8.65287 125.455 8.36682 125.387 8.30354C125.319 8.24031 125.188 8.13128 125.094 8.06126C125.001 7.99124 124.717 7.76919 124.464 7.56786C124.21 7.36653 123.956 7.16986 123.899 7.1308C123.842 7.09179 123.504 6.85169 123.147 6.59727C121.721 5.57966 120.169 4.64459 118.618 3.86859C118.11 3.61413 116.401 2.84205 116.047 2.70696C114.355 2.06051 112.883 1.58119 111.609 1.26185C111.382 1.20503 111.076 1.12792 110.93 1.0906C110.227 0.911792 108.679 0.632193 107.704 0.507873C107.624 0.497683 107.395 0.465026 107.195 0.43528C106.233 0.292375 105.19 0.23565 103.241 0.220074C102.121 0.211097 101.117 0.21197 101.01 0.221966ZM1.04679 8.11876C1.03995 12.2641 1.04141 15.6923 1.05004 15.7371C1.06464 15.8129 1.58489 15.8185 8.58094 15.8185H16.0962V8.20018V0.581824H8.57769H1.05921L1.04679 8.11876ZM48.5482 8.29723V15.8185H56.1397H63.7312V8.29723V0.775923H56.1397H48.5482V8.29723ZM138.941 1.03068C138.929 1.06406 138.924 4.3995 138.931 8.44281L138.943 15.7943L166.314 15.8065C188.793 15.8165 193.685 15.8073 193.685 15.7553C193.685 15.6421 193.234 14.3591 193.048 13.9409C192.998 13.8289 192.957 13.7236 192.957 13.7068C192.957 13.6901 192.848 13.446 192.715 13.1645C192.581 12.8831 192.472 12.6442 192.472 12.6337C192.472 12.5912 191.814 11.3966 191.558 10.974C191.199 10.3819 191.176 10.3467 190.717 9.696C190.321 9.1337 188.632 7.17661 188.496 7.12294C188.476 7.11493 188.255 6.91948 188.004 6.68855C186.974 5.73941 185.708 4.84209 184.347 4.09665C184.16 3.99436 184 3.89319 183.991 3.87179C183.982 3.85044 183.956 3.83297 183.933 3.83297C183.91 3.83297 183.645 3.71583 183.343 3.57269C182.695 3.26509 182.451 3.15499 182.091 3.00825C181.945 2.94837 181.75 2.8667 181.66 2.82672C181.466 2.74151 179.86 2.20953 179.472 2.10229C177.348 1.51534 175.363 1.19071 172.993 1.04291C172.003 0.981133 169.416 0.970458 155.398 0.970264C142.296 0.97007 138.96 0.982298 138.941 1.03068ZM101.398 1.31484C98.5653 1.4411 95.8279 1.88204 93.4183 2.60025C92.1857 2.96763 90.4815 3.58001 89.5134 4.00344C88.7189 4.35092 88.4556 4.47243 87.8883 4.75343C86.6031 5.39008 85.7553 5.86169 84.5898 6.58854C81.5172 8.50463 78.5822 11.1267 76.023 14.2418C75.9136 14.3751 75.7982 14.5332 75.7667 14.5933L75.7094 14.7025H102.853C128.69 14.7025 129.995 14.6984 129.949 14.6176C129.923 14.5709 129.834 14.4562 129.751 14.3628C129.668 14.2694 129.501 14.062 129.379 13.9018C128.908 13.2818 127.775 12.0397 126.818 11.0954C124.357 8.66583 121.45 6.55093 118.521 5.05919C118.308 4.95049 118.068 4.8268 117.988 4.78439C117.847 4.70981 117.051 4.33583 116.605 4.1346C114.487 3.17881 111.451 2.23331 109.329 1.86841C109.076 1.82478 108.781 1.77005 108.674 1.74671C108.567 1.72337 108.251 1.67974 107.971 1.64985C107.691 1.61991 107.363 1.57512 107.243 1.55038C106.713 1.44095 103.691 1.25345 102.708 1.26898C102.467 1.27281 101.878 1.29344 101.398 1.31484ZM2.20667 1.73026C2.18887 1.74802 2.17432 4.67415 2.17432 8.2327V14.7028L8.56527 14.6905L14.9562 14.6782L14.9686 8.18805L14.9808 1.69789H8.6099C5.10591 1.69789 2.22443 1.71245 2.20667 1.73026ZM140.055 2.08206C140.044 2.09317 140.035 4.93729 140.035 8.40239V14.7025H166.084C182.953 14.7025 192.132 14.6858 192.132 14.6552C192.132 14.5996 191.865 13.9168 191.794 13.793C191.768 13.7461 191.648 13.5003 191.529 13.2467C191.331 12.825 191.104 12.3908 190.759 11.7773C190.531 11.3702 190.081 10.6648 189.93 10.4748C189.874 10.4048 189.785 10.2853 189.731 10.2092C189.287 9.57571 188.54 8.73143 187.742 7.96076C187.391 7.62061 187.226 7.46809 186.701 6.99362C186.608 6.90996 186.517 6.8415 186.498 6.8415C186.479 6.8415 186.435 6.8135 186.4 6.77934C186.365 6.74513 186.195 6.60931 186.022 6.47751C184.994 5.69103 183.335 4.72607 182.176 4.24097C182.009 4.17119 181.782 4.07302 181.671 4.0228C181.331 3.86922 180.351 3.51538 179.763 3.33399C178.276 2.87573 177.328 2.65853 175.906 2.45114C174.861 2.29853 174.734 2.28339 174.063 2.23074C173.69 2.20143 173.351 2.16237 173.311 2.14393C173.235 2.10865 140.09 2.04702 140.055 2.08206ZM1.16772 28.3292L1.05853 28.3446L1.07071 50.8931L1.08288 73.4415H8.5774H16.0719L16.0841 58.5081L16.0963 43.5746H32.3222H48.548L48.5602 58.5081L48.5724 73.4415H56.1397H63.707L63.7192 50.8897L63.7313 28.3379L61.318 28.3357C46.4369 28.3222 1.25106 28.3173 1.16772 28.3292ZM69.3997 28.3271L68.7379 28.3406L68.5804 28.9094C67.9999 31.0051 67.5828 33.3936 67.4176 35.5681C67.3295 36.7278 67.3032 38.9236 67.3641 40.0323C67.4522 41.6355 67.5375 42.4297 67.8069 44.1569C68.2319 46.882 69.2658 50.3021 70.4299 52.8341C70.5075 53.0027 70.5709 53.1507 70.5709 53.1629C70.5709 53.1751 70.7753 53.5939 71.0252 54.0936C72.7387 57.5206 74.9298 60.5763 77.6159 63.2852C78.399 64.075 78.6058 64.2713 79.3994 64.9788C80.6392 66.0841 82.3676 67.3824 83.7651 68.2582C84.0453 68.4338 84.3342 68.6186 84.4071 68.6691C84.9569 69.0489 87.7145 70.4844 88.5432 70.8221C88.73 70.8982 88.9049 70.9766 88.9319 70.9964C88.9826 71.0335 89.8139 71.3604 90.5805 71.6448C93.0768 72.5709 95.6354 73.1958 98.3239 73.536C101.527 73.9414 104.441 73.9355 107.68 73.517C112.305 72.9194 116.777 71.392 120.801 69.0354C123.511 67.4484 125.938 65.5503 128.175 63.2685C129.231 62.1912 129.945 61.3841 130.714 60.3958C130.883 60.1782 131.073 59.9347 131.136 59.8546C131.714 59.1224 132.699 57.6635 133.373 56.5426C133.651 56.0793 133.894 55.6632 133.913 55.6181C133.932 55.5729 134.031 55.3874 134.134 55.2059C134.238 55.0243 134.312 54.8664 134.301 54.8549C134.283 54.837 133.14 54.3023 132.467 53.9973C131.902 53.7409 131.32 53.4594 130.066 52.8365C128.64 52.128 128.323 51.9636 126.671 51.0755C126.11 50.7744 125.586 50.4955 125.506 50.4555C125.352 50.3786 124.908 50.1376 124.585 49.9559C124.478 49.8959 124.107 49.6991 123.76 49.5186C123.413 49.3382 122.879 49.0587 122.572 48.8976C121.506 48.338 121.165 48.168 121.15 48.1883C121.141 48.1995 120.963 48.5035 120.755 48.8638C119.337 51.3122 117.414 53.4597 115.198 55.0691C114.865 55.3113 114.538 55.5482 114.472 55.5955C114.406 55.6428 114.035 55.8743 113.648 56.11C110.947 57.7525 107.724 58.7684 104.502 58.9926C103.692 59.049 101.366 59.0287 100.792 58.9603C99.406 58.7953 98.4683 58.6135 97.2504 58.2738C96.4822 58.0595 96.1232 57.9407 95.3829 57.6556C95.2495 57.6042 95.011 57.5127 94.8531 57.4523C94.4059 57.2812 92.8197 56.4738 92.2465 56.1255C89.9213 54.7127 88.1076 53.11 86.4916 51.0404C82.5521 45.9947 81.1548 39.3871 82.7227 33.2187C83.0856 31.7914 83.6172 30.35 84.2612 29.0477C84.4442 28.6774 84.5821 28.3626 84.5676 28.348C84.5408 28.3213 70.6285 28.3021 69.3997 28.3271ZM138.951 28.3703C138.934 28.388 138.919 38.5745 138.919 51.007V73.6113H146.632H154.344L154.357 61.0556L154.369 48.4999L163.634 48.4725C173.733 48.4428 173.321 48.4536 175.543 48.159C176.264 48.0633 177.685 47.7921 178.502 47.5945C182.999 46.5054 186.779 44.3351 189.476 41.294C189.884 40.8332 190.724 39.7887 190.763 39.6926C190.78 39.6526 190.893 39.4779 191.016 39.3044C191.455 38.6819 192.179 37.4378 192.483 36.7812C192.828 36.0355 192.935 35.7946 193.064 35.4739C193.25 35.0074 193.676 33.8014 193.733 33.5785C193.757 33.4851 193.865 33.0921 193.974 32.7051C194.275 31.6398 194.698 29.195 194.702 28.4956L194.703 28.3379H166.844C151.521 28.3379 138.969 28.3524 138.951 28.3703ZM2.17432 50.8776V72.3012H8.5774H14.9805V57.9173C14.9805 46.9193 14.9942 43.4742 15.0386 43.2818C15.1125 42.9612 15.4088 42.6393 15.7153 42.5467C15.888 42.4944 18.9159 42.4828 32.3707 42.4828H48.815L49.0443 42.5958C49.2776 42.7108 49.5168 42.9672 49.5952 43.1864C49.6201 43.256 49.6491 49.4785 49.6633 57.7923L49.6881 72.2769L56.1518 72.2892L62.6156 72.3015V50.8778V29.454H32.3949H2.17432V50.8776ZM69.5522 29.4785C69.5522 29.492 69.4881 29.7595 69.4096 30.0729C69.2536 30.6968 69.0324 31.7511 68.9694 32.1713C68.9474 32.3181 68.8849 32.7221 68.8305 33.069C68.5572 34.811 68.4672 36.1347 68.4693 38.3825C68.4717 40.9841 68.6461 42.8139 69.1218 45.2244C69.4913 47.0972 70.2658 49.5952 71.0549 51.4599C73.322 56.817 76.4913 61.0956 80.9744 64.8514C82.4826 66.115 84.4279 67.4385 86.2959 68.472C87.8393 69.3259 90.5029 70.4903 92.06 70.9917C92.9517 71.2788 93.1809 71.3467 94.4859 71.7101C94.8899 71.8226 96.5823 72.1618 97.2989 72.274C97.9147 72.3703 99.2033 72.5246 100.04 72.6022C100.96 72.6874 104.951 72.6877 105.812 72.6026C107.759 72.4101 108.689 72.2758 110.251 71.9622C111.367 71.7381 113.464 71.1422 114.471 70.7633C115.064 70.5402 116.047 70.1582 116.193 70.0947C116.273 70.0597 116.502 69.9607 116.702 69.8745C117.351 69.5955 117.492 69.5294 118.23 69.1599C121.567 67.49 124.287 65.5593 126.858 63.0352C128.746 61.181 130.338 59.2464 131.748 57.0887C132.2 56.3983 132.759 55.4555 132.758 55.3858C132.758 55.3616 132.676 55.3041 132.576 55.2579C132.476 55.2118 132.122 55.0459 131.788 54.8894C131.455 54.7328 131.051 54.544 130.891 54.4697C130.456 54.2681 128.024 53.0514 127.689 52.8681C127.434 52.7282 126.182 52.0587 123.833 50.8049C122.554 50.1222 121.596 49.6298 121.581 49.6472C121.573 49.6567 121.313 50.0466 121.003 50.5136C119.592 52.6409 118.188 54.1606 116.25 55.6578C115.29 56.4 113.787 57.3558 112.822 57.8379C110.461 59.0172 107.812 59.7696 104.866 60.0974C104.289 60.1617 102.073 60.1801 101.395 60.1261C99.2624 59.9566 97.2007 59.5119 95.2858 58.8085C93.2625 58.0652 91.5992 57.1548 89.718 55.7612C88.7369 55.0344 87.8162 54.2029 86.8352 53.1582C85.5197 51.7571 84.3184 50.0532 83.4143 48.3058C82.0168 45.6047 81.1722 42.4533 80.9969 39.2846C80.8347 36.3549 81.4197 32.9685 82.5941 30.039L82.8285 29.454H76.1904C72.5394 29.454 69.5522 29.465 69.5522 29.4785ZM140.035 50.9746V72.4953H146.555C150.141 72.4953 153.11 72.5085 153.152 72.5247C153.222 72.5515 153.229 71.4824 153.229 60.6185C153.229 52.7476 153.246 48.5945 153.278 48.4232C153.351 48.0401 153.505 47.7593 153.72 47.6169C154.12 47.3515 153.769 47.3611 163.158 47.3603C168.795 47.3598 171.861 47.3428 171.88 47.3119C171.896 47.2849 172.008 47.2763 172.137 47.292C172.932 47.3888 175.786 47.0856 177.434 46.7292C177.688 46.6744 177.961 46.6168 178.041 46.6012C178.497 46.5125 179.925 46.0779 180.83 45.7523C181.443 45.532 182.717 44.9823 183.11 44.7693C183.177 44.7331 183.449 44.5878 183.716 44.4464C183.982 44.305 184.314 44.1166 184.453 44.0276C184.592 43.9386 184.716 43.8658 184.728 43.8658C184.815 43.8658 186.265 42.8164 186.698 42.4398C186.825 42.33 187.036 42.1486 187.168 42.0366C187.699 41.5854 188.77 40.4501 189.446 39.6199C189.794 39.1925 190.496 38.1577 190.67 37.8151C190.727 37.7033 190.828 37.5306 190.896 37.4314C191.122 37.0976 191.834 35.5989 192.153 34.7829C192.809 33.108 193.233 31.4696 193.466 29.7087L193.5 29.454H166.767H140.035V50.9746Z" fill="#757575"/>
<path d="M2.20667 1.73026C2.18887 1.74802 2.17432 4.67415 2.17432 8.2327V14.7028L8.56527 14.6905L14.9562 14.6782L14.9686 8.18805L14.9808 1.69789H8.6099C5.10591 1.69789 2.22443 1.71245 2.20667 1.73026Z" fill="#757575"/>
<path d="M101.398 1.31484C98.5653 1.4411 95.8279 1.88204 93.4183 2.60025C92.1857 2.96763 90.4815 3.58001 89.5134 4.00344C88.7189 4.35092 88.4556 4.47243 87.8883 4.75343C86.6031 5.39008 85.7553 5.86169 84.5898 6.58854C81.5172 8.50463 78.5822 11.1267 76.023 14.2418C75.9136 14.3751 75.7982 14.5332 75.7667 14.5933L75.7094 14.7025H102.853C128.69 14.7025 129.995 14.6984 129.949 14.6176C129.923 14.5709 129.834 14.4562 129.751 14.3628C129.668 14.2694 129.501 14.062 129.379 13.9018C128.908 13.2818 127.775 12.0397 126.818 11.0954C124.357 8.66583 121.45 6.55093 118.521 5.05919C118.308 4.95049 118.068 4.8268 117.988 4.78439C117.847 4.70981 117.051 4.33583 116.605 4.1346C114.487 3.17881 111.451 2.23331 109.329 1.86841C109.076 1.82478 108.781 1.77005 108.674 1.74671C108.567 1.72337 108.251 1.67974 107.971 1.64985C107.691 1.61991 107.363 1.57512 107.243 1.55038C106.713 1.44095 103.691 1.25345 102.708 1.26898C102.467 1.27281 101.878 1.29344 101.398 1.31484Z" fill="#757575"/>
<path d="M140.055 2.08206C140.044 2.09317 140.035 4.93729 140.035 8.40239V14.7025H166.084C182.953 14.7025 192.132 14.6858 192.132 14.6552C192.132 14.5996 191.865 13.9168 191.794 13.793C191.768 13.7461 191.648 13.5003 191.529 13.2467C191.331 12.825 191.104 12.3908 190.759 11.7773C190.531 11.3702 190.081 10.6648 189.93 10.4748C189.874 10.4048 189.785 10.2853 189.731 10.2092C189.287 9.57571 188.54 8.73143 187.742 7.96076C187.391 7.62061 187.226 7.46809 186.701 6.99362C186.608 6.90996 186.517 6.8415 186.498 6.8415C186.479 6.8415 186.435 6.8135 186.4 6.77934C186.365 6.74513 186.195 6.60931 186.022 6.47751C184.994 5.69103 183.335 4.72607 182.176 4.24097C182.009 4.17119 181.782 4.07302 181.671 4.0228C181.331 3.86922 180.351 3.51538 179.763 3.33399C178.276 2.87573 177.328 2.65853 175.906 2.45114C174.861 2.29853 174.734 2.28339 174.063 2.23074C173.69 2.20143 173.351 2.16237 173.311 2.14393C173.235 2.10865 140.09 2.04702 140.055 2.08206Z" fill="#757575"/>
</g>
<defs>
<clipPath id="clip0_1_281">
<rect width="194.033" height="74" fill="white" transform="translate(0.864746)"/>
</clipPath>
</defs>
</svg>
