<svg width="16" height="16" viewBox="0 0 16 16" fill="none" xmlns="http://www.w3.org/2000/svg">
<g clip-path="url(#clip0_142_50446)">
<path d="M3.84062 0C3.67351 0 3.50315 0.0612252 3.3825 0.181875C3.26185 0.302525 3.20062 0.472889 3.20062 0.64V1.28H1.28062C1.11351 1.28 0.94315 1.34123 0.8225 1.46188C0.70185 1.58252 0.640625 1.75289 0.640625 1.92V4.48V14.72C0.640625 14.8871 0.70185 15.0575 0.8225 15.1781C0.94315 15.2988 1.11351 15.36 1.28062 15.36H14.7206C14.8877 15.36 15.0581 15.2988 15.1788 15.1781C15.2994 15.0575 15.3606 14.8871 15.3606 14.72V4.48V1.92C15.3606 1.75289 15.2994 1.58252 15.1788 1.46188C15.0581 1.34123 14.8877 1.28 14.7206 1.28H12.8006V0.64C12.8006 0.472889 12.7394 0.302525 12.6187 0.181875C12.4981 0.0612252 12.3277 0 12.1606 0H11.5206C11.3535 0 11.1831 0.0612252 11.0625 0.181875C10.9418 0.302525 10.8806 0.472889 10.8806 0.64V1.28H5.12063V0.64C5.12063 0.472889 5.0594 0.302525 4.93875 0.181875C4.8181 0.0612252 4.64774 0 4.48062 0H3.84062ZM3.84062 0.64H4.48062V2.56H3.84062V0.64ZM11.5206 0.64H12.1606V1.54625C12.1549 1.58081 12.1549 1.61607 12.1606 1.65063V2.56H11.5206V0.64ZM1.28062 1.92H3.20062V2.56C3.20062 2.72711 3.26185 2.89748 3.3825 3.01813C3.50315 3.13877 3.67351 3.2 3.84062 3.2H4.48062C4.64774 3.2 4.8181 3.13877 4.93875 3.01813C5.0594 2.89748 5.12063 2.72711 5.12063 2.56V1.92H10.8806V2.56C10.8806 2.72711 10.9418 2.89748 11.0625 3.01813C11.1831 3.13877 11.3535 3.2 11.5206 3.2H12.1606C12.3277 3.2 12.4981 3.13877 12.6187 3.01813C12.7394 2.89748 12.8006 2.72711 12.8006 2.56V1.92H14.7206V4.16H1.28062V1.92ZM1.28062 4.8H14.7206V14.72H1.28062V4.8ZM5.75562 6.07563C5.74033 6.07599 5.72508 6.07745 5.71 6.08H3.52062C3.43576 6.08001 3.35437 6.11373 3.29436 6.17374C3.23435 6.23375 3.20063 6.31513 3.20062 6.4V8.58625C3.19491 8.62081 3.19491 8.65607 3.20062 8.69063V10.8263C3.19491 10.8608 3.19491 10.8961 3.20062 10.9306V13.12C3.20063 13.2049 3.23435 13.2863 3.29436 13.3463C3.35437 13.4063 3.43576 13.44 3.52062 13.44H5.70687C5.74143 13.4457 5.77669 13.4457 5.81125 13.44H7.94687C7.98143 13.4457 8.01669 13.4457 8.05125 13.44H9.60063H10.1869C10.2214 13.4457 10.2567 13.4457 10.2913 13.44H12.4806C12.5655 13.44 12.6469 13.4063 12.7069 13.3463C12.7669 13.2863 12.8006 13.2049 12.8006 13.12V10.9338C12.8063 10.8992 12.8063 10.8639 12.8006 10.8294V8.69375C12.8063 8.65919 12.8063 8.62393 12.8006 8.58938V6.4C12.8006 6.31513 12.7669 6.23375 12.7069 6.17374C12.6469 6.11373 12.5655 6.08001 12.4806 6.08H10.2944C10.2598 6.07429 10.2246 6.07429 10.19 6.08H8.05437C8.01982 6.07429 7.98456 6.07429 7.95 6.08H5.81437C5.79497 6.07674 5.7753 6.07527 5.75562 6.07563ZM3.84062 6.72H5.44062V8.32H3.84062V6.72ZM6.08063 6.72H7.68062V8.32H6.08063V6.72ZM8.32062 6.72H9.92062V8.32H8.32062V6.72ZM10.5606 6.72H12.1606V8.32H10.5606V6.72ZM3.84062 8.96H5.44062V10.56H3.84062V8.96ZM6.08063 8.96H7.68062V10.56H6.08063V8.96ZM8.32062 8.96H9.92062V10.56H8.32062V8.96ZM10.5606 8.96H12.1606V10.56H10.5606V8.96ZM3.84062 11.2H5.44062V12.8H3.84062V11.2ZM6.08063 11.2H7.68062V12.8H6.08063V11.2ZM8.32062 11.2H9.92062V12.8H9.60063H8.32062V11.2ZM10.5606 11.2H12.1606V12.8H10.5606V11.2Z" fill="#111111"/>
</g>
<defs>
<clipPath id="clip0_142_50446">
<rect width="16" height="16" fill="white"/>
</clipPath>
</defs>
</svg>
