<svg width="18" height="18" viewBox="0 0 18 18" fill="none" xmlns="http://www.w3.org/2000/svg">
<path id="Vector" opacity="0.3" d="M9 0C4.03743 0 0 4.03743 0 9C0 13.9626 4.03743 18 9 18C13.9626 18 18 13.9626 18 9C18 4.03743 13.9626 0 9 0ZM9 1.35C13.233 1.35 16.65 4.76703 16.65 9C16.65 13.233 13.233 16.65 9 16.65C4.76702 16.65 1.35 13.233 1.35 9C1.35 4.76703 4.76702 1.35 9 1.35ZM9 4.5C8.7613 4.5 8.53239 4.59482 8.3636 4.7636C8.19482 4.93239 8.1 5.16131 8.1 5.4C8.1 5.63869 8.19482 5.86761 8.3636 6.0364C8.53239 6.20518 8.7613 6.3 9 6.3C9.23869 6.3 9.46761 6.20518 9.6364 6.0364C9.80518 5.86761 9.9 5.63869 9.9 5.4C9.9 5.16131 9.80518 4.93239 9.6364 4.7636C9.46761 4.59482 9.23869 4.5 9 4.5ZM8.98945 7.64033C8.81059 7.64313 8.64014 7.7168 8.51556 7.84518C8.39097 7.97355 8.32243 8.14613 8.325 8.325V13.275C8.32373 13.3644 8.34026 13.4533 8.37361 13.5363C8.40697 13.6193 8.45649 13.6948 8.51929 13.7585C8.5821 13.8222 8.65694 13.8728 8.73946 13.9073C8.82198 13.9418 8.91055 13.9596 9 13.9596C9.08945 13.9596 9.17802 13.9418 9.26054 13.9073C9.34306 13.8728 9.4179 13.8222 9.48071 13.7585C9.54351 13.6948 9.59303 13.6193 9.62639 13.5363C9.65974 13.4533 9.67626 13.3644 9.675 13.275V8.325C9.6763 8.23466 9.65944 8.14497 9.62544 8.06126C9.59143 7.97755 9.54097 7.90151 9.47704 7.83767C9.41311 7.77382 9.33701 7.72345 9.25326 7.68955C9.1695 7.65566 9.0798 7.63892 8.98945 7.64033Z" fill="#111111"/>
</svg>
