<svg width="66" height="66" viewBox="0 0 66 66" fill="none" xmlns="http://www.w3.org/2000/svg">
<path d="M33.0005 -0.000244141C14.7921 -0.000244141 0.000488281 14.7914 0.000488281 32.9998C0.000488281 51.2082 14.7921 65.9998 33.0005 65.9998C51.2089 65.9998 66.0005 51.2082 66.0005 32.9998C66.0005 14.7914 51.2089 -0.000244141 33.0005 -0.000244141ZM33.0005 2.86932C49.6581 2.86932 63.1309 16.3422 63.1309 32.9998C63.1309 49.6573 49.6581 63.1302 33.0005 63.1302C16.3429 63.1302 2.87005 49.6573 2.87005 32.9998C2.87005 16.3422 16.3429 2.86932 33.0005 2.86932ZM37.3048 14.3476V17.2171H46.7542L17.2179 46.7535V37.3041H14.3483V51.6519H28.6961V48.7824H19.2467L48.7831 19.246V28.6954H51.6527V14.3476H37.3048Z" fill="white"/>
</svg>
