<svg width="68" height="62" viewBox="0 0 68 62" fill="none" xmlns="http://www.w3.org/2000/svg">
<path d="M31.0005 -0.000244141C30.609 -0.000204997 30.2336 0.155334 29.9567 0.432165C29.6799 0.708996 29.5244 1.08445 29.5243 1.47595V12.9366L22.2991 27.3871C22.1966 27.5921 22.1433 27.8182 22.1434 28.0474V25.095C22.1433 24.7035 21.9878 24.328 21.711 24.0512C21.4341 23.7744 21.0587 23.6188 20.6672 23.6188H1.4767C1.26727 23.6188 1.06024 23.6634 0.86936 23.7496C0.678479 23.8357 0.508117 23.9615 0.369588 24.1186C0.231059 24.2757 0.127535 24.4604 0.0658904 24.6606C0.00424565 24.8607 -0.0141087 25.0717 0.0120468 25.2795L4.44062 60.7081C4.48559 61.0648 4.6592 61.3929 4.92887 61.6307C5.19854 61.8685 5.54573 61.9997 5.90528 61.9998H20.6672C21.0587 61.9997 21.4341 61.8442 21.711 61.5673C21.9878 61.2905 22.1433 60.9151 22.1434 60.5236V59.0474H23.6196H23.8358C23.8438 59.0726 23.8524 59.0976 23.8617 59.1223C24.5366 60.9218 26.2521 61.9998 28.0481 61.9998H56.0958C59.3578 61.9998 62.0005 59.3571 62.0005 56.095C62.0005 54.8812 61.6139 53.7621 61.052 52.8255C61.0454 52.8148 61.0386 52.8042 61.0318 52.7937L61.0087 52.7591C63.3524 51.9681 64.9529 49.7551 64.9529 47.2379C64.9529 45.9493 64.5717 44.5393 63.5344 43.4609C63.5382 43.458 63.5421 43.4551 63.5459 43.4522C63.5498 43.4503 63.5536 43.4484 63.5574 43.4465C65.264 42.3088 66.4291 40.4474 66.4291 38.3807C66.4291 37.089 66.0479 35.6745 65.0048 34.5951C65.0085 34.5929 65.0098 34.5888 65.0135 34.5864C66.8306 33.4728 67.9053 31.5755 67.9053 29.5236C67.9053 26.2615 65.2626 23.6188 62.0005 23.6188H40.4487H40.3795V23.6159L40.3824 23.6102C41.8698 18.85 42.81 15.445 42.81 13.2855C42.81 10.3997 41.7719 7.29639 40.3507 4.77431C39.6401 3.51327 38.8334 2.40274 37.9288 1.54514C37.0242 0.687542 35.9878 -0.000244141 34.691 -0.000244141H31.0005ZM32.4767 2.95214H34.691C34.7965 2.95214 35.2923 3.11489 35.8962 3.68735C36.5 4.25981 37.1793 5.16059 37.7789 6.22455C38.978 8.35247 39.8577 11.1522 39.8577 13.2855C39.8577 14.3725 39.0263 18.0529 37.5626 22.7365L37.5598 22.7423L36.9716 24.6596C36.9035 24.8804 36.8881 25.1141 36.9268 25.3419C36.9655 25.5697 37.057 25.7852 37.1942 25.9712C37.3313 26.1571 37.5102 26.3083 37.7164 26.4125C37.9226 26.5167 38.1504 26.5711 38.3815 26.5712H40.4487H62.0005C63.7575 26.5712 64.9529 27.7666 64.9529 29.5236C64.9529 30.7 64.5604 31.433 63.4565 32.0954L61.9803 32.9805C61.7937 33.0919 61.634 33.2432 61.5126 33.4235C61.3913 33.6038 61.3112 33.8087 61.2781 34.0235C61.2451 34.2384 61.2599 34.4578 61.3214 34.6663C61.383 34.8747 61.4899 35.067 61.6344 35.2294L62.8165 36.5557C62.836 36.5774 62.8562 36.5985 62.877 36.6191C63.2672 37.0092 63.4767 37.6286 63.4767 38.3807C63.4767 39.2657 62.8691 40.3531 61.9198 40.9871V40.99L60.5041 41.8376C60.3175 41.9491 60.1578 42.1004 60.0365 42.2807C59.9151 42.461 59.835 42.6658 59.8019 42.8807C59.7689 43.0955 59.7837 43.315 59.8453 43.5234C59.9068 43.7319 60.0137 43.9241 60.1582 44.0865L61.3403 45.4128C61.3598 45.4345 61.38 45.4557 61.4008 45.4762C61.791 45.8663 62.0005 46.4857 62.0005 47.2379C62.0005 48.5513 61.2452 49.5751 60.0573 49.9711L58.287 50.5622C58.0744 50.6332 57.8809 50.7517 57.7209 50.9087C57.561 51.0656 57.4389 51.257 57.3639 51.4681C57.2889 51.6793 57.2629 51.9047 57.288 52.1274C57.313 52.3501 57.3884 52.5642 57.5085 52.7534L58.5205 54.3449C58.8442 54.8844 59.0481 55.5373 59.0481 56.095C59.0481 57.8519 57.8527 59.0474 56.0958 59.0474H28.0481C27.4849 59.0474 26.8464 58.6513 26.6325 58.093L26.3672 57.1647C26.2789 56.8565 26.0928 56.5855 25.8369 56.3926C25.581 56.1996 25.2692 56.0951 24.9487 56.095H23.9136H23.6196H22.1434V30.9998H23.6196C24.0111 30.9997 24.3865 30.8442 24.6633 30.5673C24.9402 30.2905 25.0957 29.9151 25.0958 29.5236V28.3962L32.174 14.2398L32.321 13.9457C32.4235 13.7407 32.4768 13.5147 32.4767 13.2855V12.9914V2.95214ZM3.14895 26.5712H19.191V29.5236V57.5712V59.0474H7.20848L3.14895 26.5712ZM14.0243 50.1902C13.4371 50.1902 12.8738 50.4235 12.4586 50.8388C12.0433 51.254 11.81 51.8173 11.81 52.4045C11.81 52.9918 12.0433 53.555 12.4586 53.9703C12.8738 54.3855 13.4371 54.6188 14.0243 54.6188C14.6116 54.6188 15.1748 54.3855 15.5901 53.9703C16.0053 53.555 16.2386 52.9918 16.2386 52.4045C16.2386 51.8173 16.0053 51.254 15.5901 50.8388C15.1748 50.4235 14.6116 50.1902 14.0243 50.1902Z" fill="white"/>
</svg>
