<svg width="74" height="62" viewBox="0 0 74 62" fill="none" xmlns="http://www.w3.org/2000/svg">
<path d="M64.2177 0C62.1263 0 60.3699 0.837416 59.2382 2.11059C58.1065 3.38376 57.5745 5.02338 57.5745 6.64316C57.5745 8.26294 58.1065 9.90256 59.2382 11.1757C59.3829 11.3385 59.6186 11.4202 59.7831 11.5679C56.7599 13.1868 54.622 16.2737 54.622 19.9295V25.0964C54.6221 25.3993 54.7154 25.6949 54.8892 25.943C55.0631 26.1911 55.309 26.3797 55.5937 26.4833C61.304 28.559 67.1313 28.559 72.8417 26.4833C73.1263 26.3797 73.3723 26.1911 73.5461 25.943C73.7199 25.6949 73.8132 25.3993 73.8133 25.0964V19.9295C73.8133 16.2737 71.6754 13.1868 68.6522 11.5679C68.8167 11.4202 69.0525 11.3385 69.1972 11.1757C70.3289 9.90256 70.8608 8.26294 70.8608 6.64316C70.8608 5.02338 70.3289 3.38376 69.1972 2.11059C68.0655 0.837416 66.309 0 64.2177 0ZM64.2177 2.95252C65.5709 2.95252 66.3979 3.40683 66.9885 4.07124C67.5791 4.73566 67.9083 5.67949 67.9083 6.64316C67.9083 7.60683 67.5791 8.55066 66.9885 9.21508C66.3979 9.8795 65.5709 10.3338 64.2177 10.3338C62.8644 10.3338 62.0374 9.8795 61.4468 9.21508C60.8562 8.55066 60.527 7.60683 60.527 6.64316C60.527 5.67949 60.8562 4.73566 61.4468 4.07124C62.0374 3.40683 62.8644 2.95252 64.2177 2.95252ZM28.0263 8.83737C27.9557 8.83905 27.8854 8.8458 27.8158 8.85755H23.6206C10.215 8.85755 -0.638789 20.1267 0.0292742 33.6656C0.655212 46.3688 11.5998 56.0978 24.2636 56.0978H27.8014C27.9608 56.1242 28.1235 56.1242 28.2829 56.0978H35.4306C35.8222 56.0978 36.1976 55.9422 36.4745 55.6654C36.7513 55.3885 36.9069 55.0131 36.9069 54.6215V42.8115C36.9069 42.42 36.7513 42.0445 36.4745 41.7677C36.1976 41.4908 35.8222 41.3353 35.4306 41.3352H23.6206C18.7112 41.3352 14.763 37.3871 14.763 32.4777C14.763 27.5683 18.7112 23.6201 23.6206 23.6201H35.4306C35.8222 23.6201 36.1976 23.4645 36.4745 23.1877C36.7513 22.9109 36.9069 22.5354 36.9069 22.1439V10.3338C36.9069 9.94229 36.7513 9.56682 36.4745 9.28998C36.1976 9.01313 35.8222 8.85759 35.4306 8.85755H28.2973C28.2078 8.8425 28.1171 8.83575 28.0263 8.83737ZM42.8119 8.85755C42.6163 8.85478 42.4221 8.89092 42.2406 8.96387C42.059 9.03682 41.8938 9.14512 41.7545 9.28247C41.6152 9.41983 41.5045 9.58351 41.429 9.76399C41.3535 9.94447 41.3146 10.1382 41.3146 10.3338C41.3146 10.5294 41.3535 10.7231 41.429 10.9036C41.5045 11.0841 41.6152 11.2478 41.7545 11.3851C41.8938 11.5225 42.059 11.6308 42.2406 11.7037C42.4221 11.7767 42.6163 11.8128 42.8119 11.8101H45.7644C45.9601 11.8128 46.1543 11.7767 46.3358 11.7037C46.5174 11.6308 46.6826 11.5225 46.8219 11.3851C46.9612 11.2478 47.0718 11.0841 47.1473 10.9036C47.2228 10.7231 47.2617 10.5294 47.2617 10.3338C47.2617 10.1382 47.2228 9.94447 47.1473 9.76399C47.0718 9.58351 46.9612 9.41983 46.8219 9.28247C46.6826 9.14512 46.5174 9.03682 46.3358 8.96387C46.1543 8.89092 45.9601 8.85478 45.7644 8.85755H42.8119ZM23.6206 11.8101H26.5731V20.6676H23.6206C17.1155 20.6676 11.8105 25.9726 11.8105 32.4777C11.8105 38.9827 17.1155 44.2877 23.6206 44.2877H26.5731V53.1453H24.2636C13.1094 53.1453 3.52512 44.6066 2.97891 33.5214C2.39215 21.6303 11.8648 11.8101 23.6206 11.8101ZM29.5256 11.8101H33.9544V20.6676H29.5256V11.8101ZM64.2177 13.2863C67.905 13.2863 70.8608 16.2422 70.8608 19.9295V23.8883C66.4097 25.3038 62.0256 25.3038 57.5745 23.8883V19.9295C57.5745 16.2422 60.5304 13.2863 64.2177 13.2863ZM44.2882 14.7626C44.0926 14.7598 43.8983 14.796 43.7168 14.8689C43.5353 14.9418 43.3701 15.0501 43.2307 15.1875C43.0914 15.3249 42.9808 15.4885 42.9053 15.669C42.8298 15.8495 42.7909 16.0432 42.7909 16.2388C42.7909 16.4345 42.8298 16.6282 42.9053 16.8087C42.9808 16.9891 43.0914 17.1528 43.2307 17.2902C43.3701 17.4275 43.5353 17.5358 43.7168 17.6088C43.8983 17.6817 44.0926 17.7179 44.2882 17.7151H51.6695C51.8651 17.7179 52.0593 17.6817 52.2408 17.6088C52.4224 17.5358 52.5876 17.4275 52.7269 17.2902C52.8662 17.1528 52.9769 16.9891 53.0524 16.8087C53.1279 16.6282 53.1668 16.4345 53.1668 16.2388C53.1668 16.0432 53.1279 15.8495 53.0524 15.669C52.9769 15.4885 52.8662 15.3249 52.7269 15.1875C52.5876 15.0501 52.4224 14.9418 52.2408 14.8689C52.0593 14.796 51.8651 14.7598 51.6695 14.7626H44.2882ZM41.3357 20.6676C41.14 20.6648 40.9458 20.701 40.7643 20.7739C40.5828 20.8469 40.4175 20.9552 40.2782 21.0925C40.1389 21.2299 40.0283 21.3936 39.9528 21.5741C39.8773 21.7545 39.8384 21.9482 39.8384 22.1439C39.8384 22.3395 39.8773 22.5332 39.9528 22.7137C40.0283 22.8942 40.1389 23.0578 40.2782 23.1952C40.4175 23.3326 40.5828 23.4409 40.7643 23.5138C40.9458 23.5868 41.14 23.6229 41.3357 23.6201H47.2407C47.4363 23.6229 47.6305 23.5868 47.8121 23.5138C47.9936 23.4409 48.1588 23.3326 48.2981 23.1952C48.4375 23.0578 48.5481 22.8942 48.6236 22.7137C48.6991 22.5332 48.738 22.3395 48.738 22.1439C48.738 21.9482 48.6991 21.7545 48.6236 21.5741C48.5481 21.3936 48.4375 21.2299 48.2981 21.0925C48.1588 20.9552 47.9936 20.8469 47.8121 20.7739C47.6305 20.701 47.4363 20.6648 47.2407 20.6676H41.3357ZM64.2177 33.9539C62.1263 33.9539 60.3699 34.7914 59.2382 36.0645C58.1065 37.3377 57.5745 38.9773 57.5745 40.5971C57.5745 42.2169 58.1065 43.8565 59.2382 45.1297C59.3829 45.2925 59.6186 45.3741 59.7831 45.5218C56.7599 47.1408 54.622 50.2276 54.622 53.8834V59.0503C54.6221 59.3533 54.7154 59.6488 54.8892 59.8969C55.0631 60.145 55.309 60.3336 55.5937 60.4372C61.304 62.513 67.1313 62.513 72.8417 60.4372C73.1263 60.3336 73.3723 60.145 73.5461 59.8969C73.7199 59.6488 73.8132 59.3533 73.8133 59.0503V53.8834C73.8133 50.2276 71.6754 47.1408 68.6522 45.5218C68.8167 45.3741 69.0525 45.2925 69.1972 45.1297C70.3289 43.8565 70.8608 42.2169 70.8608 40.5971C70.8608 38.9773 70.3289 37.3377 69.1972 36.0645C68.0655 34.7914 66.309 33.9539 64.2177 33.9539ZM64.2177 36.9064C65.5709 36.9064 66.3979 37.3608 66.9885 38.0252C67.5791 38.6896 67.9083 39.6334 67.9083 40.5971C67.9083 41.5608 67.5791 42.5046 66.9885 43.169C66.3979 43.8334 65.5709 44.2877 64.2177 44.2877C62.8644 44.2877 62.0374 43.8334 61.4468 43.169C60.8562 42.5046 60.527 41.5608 60.527 40.5971C60.527 39.6334 60.8562 38.6896 61.4468 38.0252C62.0374 37.3608 62.8644 36.9064 64.2177 36.9064ZM41.3357 41.3352C41.14 41.3325 40.9458 41.3686 40.7643 41.4415C40.5828 41.5145 40.4175 41.6228 40.2782 41.7602C40.1389 41.8975 40.0283 42.0612 39.9528 42.2417C39.8773 42.4222 39.8384 42.6158 39.8384 42.8115C39.8384 43.0071 39.8773 43.2008 39.9528 43.3813C40.0283 43.5618 40.1389 43.7255 40.2782 43.8628C40.4175 44.0002 40.5828 44.1085 40.7643 44.1814C40.9458 44.2544 41.14 44.2905 41.3357 44.2877H47.2407C47.4363 44.2905 47.6305 44.2544 47.8121 44.1814C47.9936 44.1085 48.1588 44.0002 48.2981 43.8628C48.4375 43.7255 48.5481 43.5618 48.6236 43.3813C48.6991 43.2008 48.738 43.0071 48.738 42.8115C48.738 42.6158 48.6991 42.4222 48.6236 42.2417C48.5481 42.0612 48.4375 41.8975 48.2981 41.7602C48.1588 41.6228 47.9936 41.5145 47.8121 41.4415C47.6305 41.3686 47.4363 41.3325 47.2407 41.3352H41.3357ZM29.5256 44.2877H33.9544V53.1453H29.5256V44.2877ZM44.2882 47.2403C44.0926 47.2375 43.8983 47.2736 43.7168 47.3466C43.5353 47.4195 43.3701 47.5278 43.2307 47.6652C43.0914 47.8025 42.9808 47.9662 42.9053 48.1467C42.8298 48.3272 42.7909 48.5209 42.7909 48.7165C42.7909 48.9122 42.8298 49.1058 42.9053 49.2863C42.9808 49.4668 43.0914 49.6305 43.2307 49.7678C43.3701 49.9052 43.5353 50.0135 43.7168 50.0865C43.8983 50.1594 44.0926 50.1955 44.2882 50.1928H51.6695C51.8651 50.1955 52.0593 50.1594 52.2408 50.0865C52.4224 50.0135 52.5876 49.9052 52.7269 49.7678C52.8662 49.6305 52.9769 49.4668 53.0524 49.2863C53.1279 49.1058 53.1668 48.9122 53.1668 48.7165C53.1668 48.5209 53.1279 48.3272 53.0524 48.1467C52.9769 47.9662 52.8662 47.8025 52.7269 47.6652C52.5876 47.5278 52.4224 47.4195 52.2408 47.3466C52.0593 47.2736 51.8651 47.2375 51.6695 47.2403H44.2882ZM64.2177 47.2403C67.905 47.2403 70.8608 50.1961 70.8608 53.8834V57.8422C66.4097 59.2577 62.0256 59.2577 57.5745 57.8422V53.8834C57.5745 50.1961 60.5304 47.2403 64.2177 47.2403ZM42.8119 53.1453C42.6163 53.1425 42.4221 53.1787 42.2406 53.2516C42.059 53.3246 41.8938 53.4329 41.7545 53.5702C41.6152 53.7076 41.5045 53.8712 41.429 54.0517C41.3535 54.2322 41.3146 54.4259 41.3146 54.6215C41.3146 54.8172 41.3535 55.0109 41.429 55.1914C41.5045 55.3718 41.6152 55.5355 41.7545 55.6729C41.8938 55.8102 42.059 55.9185 42.2406 55.9915C42.4221 56.0644 42.6163 56.1006 42.8119 56.0978H45.7644C45.9601 56.1006 46.1543 56.0644 46.3358 55.9915C46.5174 55.9185 46.6826 55.8102 46.8219 55.6729C46.9612 55.5355 47.0718 55.3718 47.1473 55.1914C47.2228 55.0109 47.2617 54.8172 47.2617 54.6215C47.2617 54.4259 47.2228 54.2322 47.1473 54.0517C47.0718 53.8712 46.9612 53.7076 46.8219 53.5702C46.6826 53.4329 46.5174 53.3246 46.3358 53.2516C46.1543 53.1787 45.9601 53.1425 45.7644 53.1453H42.8119Z" fill="white"/>
</svg>
