<svg width="259" height="52" viewBox="0 0 259 52" fill="none" xmlns="http://www.w3.org/2000/svg">
<g clip-path="url(#clip0_1_295)">
<g opacity="0.5">
<path d="M8.51277 34.2928C8.51277 37.2821 9.16889 39.5772 10.0265 40.9656C11.1509 42.7843 12.8279 43.5548 14.5377 43.5548C16.7429 43.5548 18.7603 43.0075 22.6481 37.6306C25.7626 33.3208 29.4326 27.2714 31.9019 23.479L36.0837 17.0538C38.9886 12.5916 42.3509 7.6312 46.206 4.2689C49.3532 1.52461 52.7482 0 56.1649 0C61.9012 0 67.3653 3.32419 71.5471 9.55874C76.1237 16.3868 78.3452 24.9872 78.3452 33.8626C78.3452 39.1388 77.3052 43.0157 75.5356 46.0785C73.8259 49.0406 70.4935 52 64.8878 52V43.5548C69.6876 43.5548 70.8855 39.1443 70.8855 34.0967C70.8855 26.9039 69.2085 18.9215 65.514 13.2178C62.8922 9.17215 59.4945 6.7001 55.7565 6.7001C51.7136 6.7001 48.4602 9.74932 44.8039 15.1862C42.86 18.0748 40.8644 21.595 38.6238 25.5671L36.1572 29.9368C31.2022 38.7223 29.9471 40.7233 27.4696 44.0258C23.1272 49.8084 19.4192 52 14.5377 52C8.7469 52 5.08512 49.4926 2.81727 45.7137C0.96596 42.6346 0.0566406 38.5943 0.0566406 33.9906L8.51277 34.2928Z" fill="#757575"/>
<path d="M6.72461 10.155C10.6015 4.17906 16.1962 0 22.6132 0C26.3294 0 30.0239 1.0999 33.8817 4.24984C38.1016 7.69382 42.5992 13.3648 48.2103 22.7112L50.2222 26.0653C55.0792 34.1566 57.8425 38.3194 59.4597 40.2823C61.5397 42.8033 62.9962 43.5548 64.8884 43.5548C69.6882 43.5548 70.8861 39.1443 70.8861 34.0967L78.3458 33.8626C78.3458 39.1388 77.3057 43.0157 75.5361 46.0785C73.8264 49.0406 70.494 52 64.8884 52C61.4036 52 58.3162 51.2431 54.9022 48.0224C52.2777 45.5504 49.2094 41.1589 46.849 37.2113L39.8276 25.4827C36.3047 19.5966 33.0731 15.208 31.2027 13.2205C29.1908 11.0834 26.6044 8.50241 22.4771 8.50241C19.1365 8.50241 16.2997 10.8465 13.9257 14.432L6.72461 10.155Z" fill="#757575"/>
<path d="M22.4765 8.50241C19.136 8.50241 16.2992 10.8465 13.9251 14.432C10.5683 19.4986 8.51277 27.0454 8.51277 34.2928C8.51277 37.2821 9.16889 39.5772 10.0265 40.9657L2.81727 45.7137C0.96596 42.6346 0.0566406 38.5943 0.0566406 33.9906C0.0566406 25.6188 2.35444 16.8932 6.72408 10.155C10.6009 4.17906 16.1957 0 22.6127 0L22.4765 8.50241Z" fill="#757575"/>
</g>
<path d="M94.7842 1.64258H104.566L121.198 31.7318L137.833 1.64258H147.402V51.0834H139.423V13.1915L124.835 39.4311H117.348L102.764 13.1915V51.0834H94.7842V1.64258ZM172.406 20.0767C166.683 20.0767 163.236 24.3837 162.411 29.7171H181.834C181.434 24.2231 178.265 20.0767 172.406 20.0767ZM154.5 32.7555C154.5 21.5333 161.753 13.3657 172.545 13.3657C183.16 13.3657 189.498 21.4298 189.498 33.3544V35.546H162.411C163.372 41.3477 167.222 45.2572 173.429 45.2572C178.382 45.2572 181.477 43.7462 184.412 40.9829L188.651 46.1747C184.657 49.8474 179.577 51.9655 173.146 51.9655C161.464 51.9655 154.5 43.4468 154.5 32.7555ZM199.174 20.7846H191.828V14.2505H199.174V3.44488H206.873V14.2505H218.032V20.7846H206.873V37.3456C206.873 43.0003 208.681 45.0095 213.124 45.0095C215.152 45.0095 216.314 44.8353 218.032 44.5494V51.0126C215.892 51.617 213.851 51.8947 211.64 51.8947C203.328 51.8947 199.174 47.3536 199.174 38.2631V20.7846ZM250.452 27.1389C248.906 23.2348 245.456 20.3599 240.387 20.3599C233.798 20.3599 229.581 25.0344 229.581 32.6493C229.581 40.0736 233.464 44.9741 240.071 44.9741C245.266 44.9741 248.974 41.9521 250.452 38.1923V27.1389ZM258.151 51.0834H250.594V45.927C248.481 48.9626 244.637 51.9655 238.41 51.9655C228.397 51.9655 221.705 43.5829 221.705 32.6493C221.705 21.6122 228.558 13.3657 238.835 13.3657C243.915 13.3657 247.901 15.3967 250.594 18.9823V14.2505H258.151V51.0834Z" fill="#757575"/>
</g>
<defs>
<clipPath id="clip0_1_295">
<rect width="258.094" height="52" fill="white" transform="translate(0.0576172)"/>
</clipPath>
</defs>
</svg>
