<svg width="16" height="17" viewBox="0 0 16 17" fill="none" xmlns="http://www.w3.org/2000/svg">
<g opacity="0.5" clip-path="url(#clip0_264_3478)">
<path d="M3.84062 0.5C3.67351 0.5 3.50315 0.561225 3.3825 0.681875C3.26185 0.802525 3.20062 0.972889 3.20062 1.14V1.78H1.28062C1.11351 1.78 0.94315 1.84123 0.8225 1.96188C0.70185 2.08252 0.640625 2.25289 0.640625 2.42V4.98V15.22C0.640625 15.3871 0.70185 15.5575 0.8225 15.6781C0.94315 15.7988 1.11351 15.86 1.28062 15.86H14.7206C14.8877 15.86 15.0581 15.7988 15.1788 15.6781C15.2994 15.5575 15.3606 15.3871 15.3606 15.22V4.98V2.42C15.3606 2.25289 15.2994 2.08252 15.1788 1.96188C15.0581 1.84123 14.8877 1.78 14.7206 1.78H12.8006V1.14C12.8006 0.972889 12.7394 0.802525 12.6187 0.681875C12.4981 0.561225 12.3277 0.5 12.1606 0.5H11.5206C11.3535 0.5 11.1831 0.561225 11.0625 0.681875C10.9418 0.802525 10.8806 0.972889 10.8806 1.14V1.78H5.12063V1.14C5.12063 0.972889 5.0594 0.802525 4.93875 0.681875C4.8181 0.561225 4.64774 0.5 4.48062 0.5H3.84062ZM3.84062 1.14H4.48062V3.06H3.84062V1.14ZM11.5206 1.14H12.1606V2.04625C12.1549 2.08081 12.1549 2.11607 12.1606 2.15063V3.06H11.5206V1.14ZM1.28062 2.42H3.20062V3.06C3.20062 3.22711 3.26185 3.39748 3.3825 3.51813C3.50315 3.63877 3.67351 3.7 3.84062 3.7H4.48062C4.64774 3.7 4.8181 3.63877 4.93875 3.51813C5.0594 3.39748 5.12063 3.22711 5.12063 3.06V2.42H10.8806V3.06C10.8806 3.22711 10.9418 3.39748 11.0625 3.51813C11.1831 3.63877 11.3535 3.7 11.5206 3.7H12.1606C12.3277 3.7 12.4981 3.63877 12.6187 3.51813C12.7394 3.39748 12.8006 3.22711 12.8006 3.06V2.42H14.7206V4.66H1.28062V2.42ZM1.28062 5.3H14.7206V15.22H1.28062V5.3ZM5.75562 6.57563C5.74033 6.57599 5.72508 6.57745 5.71 6.58H3.52062C3.43576 6.58001 3.35437 6.61373 3.29436 6.67374C3.23435 6.73375 3.20063 6.81513 3.20062 6.9V9.08625C3.19491 9.12081 3.19491 9.15607 3.20062 9.19063V11.3263C3.19491 11.3608 3.19491 11.3961 3.20062 11.4306V13.62C3.20063 13.7049 3.23435 13.7863 3.29436 13.8463C3.35437 13.9063 3.43576 13.94 3.52062 13.94H5.70687C5.74143 13.9457 5.77669 13.9457 5.81125 13.94H7.94687C7.98143 13.9457 8.01669 13.9457 8.05125 13.94H9.60063H10.1869C10.2214 13.9457 10.2567 13.9457 10.2913 13.94H12.4806C12.5655 13.94 12.6469 13.9063 12.7069 13.8463C12.7669 13.7863 12.8006 13.7049 12.8006 13.62V11.4338C12.8063 11.3992 12.8063 11.3639 12.8006 11.3294V9.19375C12.8063 9.15919 12.8063 9.12393 12.8006 9.08938V6.9C12.8006 6.81513 12.7669 6.73375 12.7069 6.67374C12.6469 6.61373 12.5655 6.58001 12.4806 6.58H10.2944C10.2598 6.57429 10.2246 6.57429 10.19 6.58H8.05437C8.01982 6.57429 7.98456 6.57429 7.95 6.58H5.81437C5.79497 6.57674 5.7753 6.57527 5.75562 6.57563ZM3.84062 7.22H5.44062V8.82H3.84062V7.22ZM6.08063 7.22H7.68062V8.82H6.08063V7.22ZM8.32062 7.22H9.92062V8.82H8.32062V7.22ZM10.5606 7.22H12.1606V8.82H10.5606V7.22ZM3.84062 9.46H5.44062V11.06H3.84062V9.46ZM6.08063 9.46H7.68062V11.06H6.08063V9.46ZM8.32062 9.46H9.92062V11.06H8.32062V9.46ZM10.5606 9.46H12.1606V11.06H10.5606V9.46ZM3.84062 11.7H5.44062V13.3H3.84062V11.7ZM6.08063 11.7H7.68062V13.3H6.08063V11.7ZM8.32062 11.7H9.92062V13.3H9.60063H8.32062V11.7ZM10.5606 11.7H12.1606V13.3H10.5606V11.7Z" fill="#111111"/>
</g>
<defs>
<clipPath id="clip0_264_3478">
<rect width="16" height="16" fill="white" transform="translate(0 0.5)"/>
</clipPath>
</defs>
</svg>
