<svg width="1920" height="621" viewBox="0 0 1920 621" fill="none" xmlns="http://www.w3.org/2000/svg">
<path opacity="0.5" fill-rule="evenodd" clip-rule="evenodd" d="M0 72.636C0 144.315 0.0259999 145.272 1.976 145.272C7.679 145.272 51.924 148.607 75.5 150.813C243.034 166.494 410.73 204.455 558.809 260.221C580.149 268.258 614.808 282.21 628.854 288.418L634.208 290.785L625.354 297.775C536.606 367.844 498.164 431.705 507.489 493.575C513.472 533.264 539.125 565.741 581.172 586.859C623.792 608.263 680.785 618.439 766.5 619.948C822.363 620.932 864.203 616.679 905.5 605.818C979.09 586.465 1024.72 544.898 1034.57 488.233C1036.58 476.692 1036.05 449.717 1033.59 438.772C1027.39 411.104 1013.28 383.406 991.042 355.272C980.701 342.188 947.12 308.768 932.26 296.772C926.129 291.822 921.087 287.498 921.056 287.162C921.025 286.827 931.166 281.727 943.591 275.828C1027.52 235.983 1089.96 215.526 1110.53 221.133C1119.42 223.556 1130.12 238.303 1144.74 268.272C1178.22 336.939 1184.72 348.943 1200.14 370.542C1252.2 443.457 1325.23 480.272 1417.81 480.272C1541.67 480.272 1690.01 413.302 1877.5 272.749C1892.35 261.617 1907.91 249.804 1912.08 246.5L1919.67 240.491L1920.33 168.217C1920.7 128.465 1920.89 74.304 1920.77 47.857C1920.62 17.039 1920.42 9.109 1920.21 25.772L1919.88 51.772L1902.27 66.272C1770.9 174.464 1679.16 238.192 1592 281.809C1521.55 317.064 1466.68 333.397 1418.5 333.458C1376.42 333.513 1347.02 321.092 1326.24 294.471C1315.7 280.972 1308.06 267.411 1287.33 225.39C1276.65 203.73 1265.16 181.23 1261.8 175.39C1237.91 133.891 1211.75 107.435 1178.05 90.704C1145.22 74.404 1105.97 69.688 1063 76.881C1004.41 86.69 899.535 129.849 796.545 186.537L777.591 196.97L766.545 191.182C760.47 187.998 746.05 180.922 734.5 175.458C562.925 94.284 360.505 37.447 150 11.338C97.074 4.773 56.221 1.243 25.25 0.558L0 0V72.636ZM0.474 73.272C0.474 113.147 0.598 129.46 0.75 109.522C0.901 89.585 0.901 56.96 0.75 37.022C0.598 17.085 0.474 33.397 0.474 73.272ZM768.914 374.413C756.72 382.774 753.506 385.211 753.485 386.113C753.476 386.475 753.052 387.447 752.543 388.272C751.719 389.605 751.832 389.605 753.558 388.272C755.355 386.884 755.398 386.902 754.128 388.522C753.373 389.484 752.173 390.272 751.461 390.272C750.749 390.272 749.196 391.51 748.009 393.022C746.823 394.534 746.159 395.097 746.536 394.272C746.912 393.447 746.158 393.918 744.86 395.319C743.562 396.72 742.95 397.197 743.5 396.378C744.05 395.559 743.038 395.96 741.25 397.269C738.15 399.539 736.72 401.181 739.155 399.677C739.876 399.231 740.037 399.403 739.585 400.134C739.187 400.778 738.393 401.015 737.82 400.661C737.247 400.307 735.816 401.108 734.639 402.442C733.463 403.775 732.725 404.378 733 403.78C733.275 403.183 732.375 403.854 731 405.272C729.625 406.69 728.942 407.157 729.483 406.311C730.692 404.417 726.618 407.533 723 411.268C721.625 412.688 720.903 413.157 721.396 412.311C721.888 411.465 720.763 412.37 718.896 414.324C717.028 416.277 716.175 416.98 717 415.887C717.825 414.793 716.573 415.419 714.217 417.278C711.531 419.399 710.142 421.199 710.49 422.107C710.968 423.351 710.805 423.359 709.336 422.163C707.825 420.934 707.704 420.982 708.301 422.574C708.673 423.565 708.585 424.134 708.106 423.838C706.915 423.102 701.842 427.208 702.542 428.341C702.851 428.84 702.433 428.992 701.613 428.677C700.735 428.34 699.586 428.962 698.82 430.188C698.104 431.334 696.926 432.272 696.2 432.272C695.475 432.272 695.16 432.722 695.5 433.272C695.84 433.822 695.495 434.272 694.733 434.272C692.883 434.272 688.779 438.718 689.741 439.68C690.158 440.097 690.05 440.296 689.5 440.121C688.122 439.682 682.941 444.367 683.608 445.447C683.906 445.928 683.755 446.198 683.273 446.047C682.792 445.896 678.86 449.26 674.536 453.522C670.212 457.784 665.96 461.301 665.087 461.335C662.297 461.447 667.181 462.986 677.244 465.166C709.091 472.066 773.3 475.541 813 472.514C840.085 470.448 868.821 465.134 881.46 459.853L885.239 458.274L882.451 454.523C865.937 432.304 841.628 409.973 807.926 386.064C794.892 376.818 780.574 367.272 779.739 367.272C779.513 367.272 774.642 370.485 768.914 374.413ZM755.559 384.804C754.491 385.611 754.099 386.272 754.686 386.272C755.274 386.272 756.315 385.597 757 384.772C758.557 382.896 758.067 382.906 755.559 384.804ZM691.872 437.022C690.629 438.608 690.664 438.643 692.25 437.4C693.916 436.093 694.445 435.272 693.622 435.272C693.415 435.272 692.627 436.06 691.872 437.022ZM669.405 459.522L667.5 461.772L669.75 459.867C671.864 458.077 672.455 457.272 671.655 457.272C671.465 457.272 670.453 458.284 669.405 459.522Z" fill="#FDECCB"/>
</svg>
