<svg width="1920" height="621" viewBox="0 0 1920 621" fill="none" xmlns="http://www.w3.org/2000/svg">
<path opacity="0.5" fill-rule="evenodd" clip-rule="evenodd" d="M0 72.6336C0 144.313 0.0259999 145.27 1.976 145.27C7.679 145.27 51.924 148.605 75.5 150.811C243.034 166.492 410.73 204.453 558.809 260.219C580.149 268.256 614.808 282.208 628.854 288.416L634.208 290.783L625.354 297.773C536.606 367.842 498.164 431.703 507.489 493.573C513.472 533.262 539.125 565.739 581.172 586.857C623.792 608.26 680.785 618.437 766.5 619.946C822.363 620.93 864.203 616.677 905.5 605.816C979.09 586.463 1024.72 544.896 1034.57 488.231C1036.58 476.69 1036.05 449.715 1033.59 438.77C1027.39 411.102 1013.28 383.404 991.042 355.27C980.701 342.186 947.12 308.766 932.26 296.77C926.129 291.82 921.087 287.496 921.056 287.16C921.025 286.825 931.166 281.725 943.591 275.826C1027.52 235.981 1089.96 215.524 1110.53 221.131C1119.42 223.554 1130.12 238.301 1144.74 268.27C1178.22 336.937 1184.72 348.941 1200.14 370.54C1252.2 443.455 1325.23 480.27 1417.81 480.27C1541.67 480.27 1690.01 413.3 1877.5 272.747C1892.35 261.615 1907.91 249.802 1912.08 246.498L1919.67 240.489L1920.33 168.215C1920.7 128.463 1920.9 74.3016 1920.77 47.8546C1920.62 17.0366 1920.42 9.10656 1920.21 25.7696L1919.88 51.7696L1902.27 66.2696C1770.9 174.462 1679.16 238.19 1592 281.807C1521.55 317.062 1466.68 333.395 1418.5 333.456C1376.42 333.511 1347.02 321.09 1326.24 294.469C1315.7 280.97 1308.06 267.409 1287.33 225.388C1276.65 203.728 1265.16 181.228 1261.8 175.388C1237.91 133.889 1211.75 107.433 1178.05 90.7016C1145.22 74.4016 1105.97 69.6856 1063 76.8786C1004.41 86.6876 899.535 129.847 796.545 186.535L777.591 196.968L766.545 191.18C760.47 187.996 746.05 180.92 734.5 175.456C562.925 94.2816 360.505 37.4446 150 11.3356C97.074 4.77056 56.221 1.24056 25.25 0.555559L0 -0.00244141V72.6336ZM0.474 73.2696C0.474 113.145 0.598 129.458 0.75 109.52C0.901 89.5826 0.901 56.9576 0.75 37.0196C0.598 17.0826 0.474 33.3946 0.474 73.2696ZM768.914 374.411C756.72 382.772 753.506 385.209 753.485 386.111C753.476 386.473 753.052 387.445 752.543 388.27C751.719 389.603 751.832 389.603 753.558 388.27C755.355 386.882 755.398 386.9 754.128 388.52C753.373 389.482 752.173 390.27 751.461 390.27C750.749 390.27 749.196 391.508 748.009 393.02C746.823 394.532 746.159 395.095 746.536 394.27C746.912 393.445 746.158 393.916 744.86 395.317C743.562 396.718 742.95 397.195 743.5 396.376C744.05 395.557 743.038 395.958 741.25 397.267C738.15 399.537 736.72 401.179 739.155 399.675C739.876 399.229 740.037 399.401 739.585 400.132C739.187 400.776 738.393 401.013 737.82 400.659C737.247 400.305 735.816 401.106 734.639 402.44C733.463 403.773 732.725 404.376 733 403.778C733.275 403.181 732.375 403.852 731 405.27C729.625 406.688 728.942 407.155 729.483 406.309C730.692 404.415 726.618 407.531 723 411.266C721.625 412.686 720.903 413.155 721.396 412.309C721.888 411.463 720.763 412.368 718.896 414.322C717.028 416.275 716.175 416.978 717 415.885C717.825 414.791 716.573 415.417 714.217 417.276C711.531 419.397 710.142 421.197 710.49 422.105C710.968 423.349 710.805 423.357 709.336 422.161C707.825 420.932 707.704 420.98 708.301 422.572C708.673 423.563 708.585 424.132 708.106 423.836C706.915 423.1 701.842 427.206 702.542 428.339C702.851 428.838 702.433 428.99 701.613 428.675C700.735 428.338 699.586 428.96 698.82 430.186C698.104 431.332 696.926 432.27 696.2 432.27C695.475 432.27 695.16 432.72 695.5 433.27C695.84 433.82 695.495 434.27 694.733 434.27C692.883 434.27 688.779 438.716 689.741 439.678C690.158 440.095 690.05 440.294 689.5 440.119C688.122 439.68 682.941 444.365 683.608 445.445C683.906 445.926 683.755 446.196 683.273 446.045C682.792 445.894 678.86 449.258 674.536 453.52C670.212 457.782 665.96 461.299 665.087 461.333C662.297 461.445 667.181 462.984 677.244 465.164C709.091 472.064 773.3 475.539 813 472.512C840.085 470.446 868.821 465.132 881.46 459.851L885.239 458.272L882.451 454.521C865.937 432.302 841.628 409.971 807.926 386.062C794.892 376.816 780.574 367.27 779.739 367.27C779.513 367.27 774.642 370.483 768.914 374.411ZM755.559 384.802C754.491 385.609 754.099 386.27 754.686 386.27C755.274 386.27 756.315 385.595 757 384.77C758.557 382.894 758.067 382.904 755.559 384.802ZM691.872 437.02C690.629 438.606 690.664 438.641 692.25 437.398C693.916 436.091 694.445 435.27 693.622 435.27C693.415 435.27 692.627 436.058 691.872 437.02ZM669.405 459.52L667.5 461.77L669.75 459.865C671.864 458.075 672.455 457.27 671.655 457.27C671.465 457.27 670.453 458.282 669.405 459.52Z" fill="#FDECCB"/>
</svg>
