<svg width="159" height="105" viewBox="0 0 159 105" fill="none" xmlns="http://www.w3.org/2000/svg">
<path fill-rule="evenodd" clip-rule="evenodd" d="M15.6262 44.1446C8.5899 46.0392 3.30117 50.9344 0.970074 57.7092C0.0725357 60.3183 3.32722e-05 62.0379 3.32722e-05 80.6662C3.32722e-05 102.701 -0.0424689 102.384 2.91066 102.367C5.84928 102.35 5.72828 103.175 6.00029 81.2677L6.2503 61.1228L7.64536 58.2817C9.16043 55.1966 11.3385 53.0095 14.6397 51.2589C17.8468 49.5583 23.8326 49.6603 27.2962 51.4749C30.2683 53.032 32.7189 55.6496 34.1985 58.8472C35.199 61.0093 35.264 62.1259 35.5016 81.2677C35.7776 103.505 35.6121 102.509 38.9902 102.255C41.9378 102.034 41.9863 101.702 41.9913 81.8737C41.9938 72.1108 41.7813 62.8134 41.5193 61.2123C39.5297 49.0643 27.2982 41.0015 15.6262 44.1446ZM139.618 45.1506L138.506 45.9287V73.3244C138.506 99.662 138.543 100.753 139.462 101.585C140.809 102.804 143.075 102.438 143.862 100.875C144.344 99.918 144.493 93.4312 144.499 73.2259L144.506 46.8267L143.279 45.5997C141.849 44.1691 141.142 44.0826 139.618 45.1506ZM49.5022 45.8722C48.5361 46.8382 48.5021 47.5387 48.5021 66.5706C48.5021 84.9068 48.5716 86.4944 49.5102 89.5316C51.7993 96.9429 58.516 102.627 66.5054 103.914C77.0518 105.612 87.9653 97.7219 89.9969 86.9309C90.2819 85.4174 90.5039 76.151 90.5039 65.782V47.3267L89.2764 46.0997C87.8853 44.7081 86.6377 44.5486 85.2242 45.5812C84.2981 46.2577 84.2421 47.2287 84.0036 66.7071L83.7536 87.1239L82.4231 89.6241C79.6174 94.8968 75.1028 97.6219 69.253 97.5744C63.6893 97.5294 59.0276 94.6868 56.3735 89.7211C55.2779 87.6715 55.2469 87.16 55.0024 67.2031L54.7524 46.7827L53.5718 45.8272C52.0573 44.6016 50.7582 44.6161 49.5022 45.8722Z" fill="#111111"/>
<path fill-rule="evenodd" clip-rule="evenodd" d="M157.007 24.2148C154.585 24.6158 149.323 26.4499 146.555 27.8574C135.679 33.3887 124.041 45.5317 115.491 60.2718L113.594 63.542L100.708 37.7863L98.1059 40.1254C96.6753 41.412 95.5113 42.7251 95.5198 43.0436C95.5283 43.3616 99.7814 51.5749 104.972 61.2949C112.662 75.698 114.469 78.7506 114.738 77.7956C114.92 77.151 115.267 76.1735 115.509 75.6235C115.752 75.0734 116.435 73.4984 117.027 72.1233C121.289 62.2294 128.372 50.0584 133.421 43.9506C139.284 36.8598 149.93 28.3899 157.028 25.1678C159.663 23.9713 159.659 23.7752 157.007 24.2148Z" fill="#FF7A00"/>
<rect x="34" y="20.9644" width="81" height="44" rx="22" transform="rotate(-15 34 20.9644)" fill="#FF7A00"/>
<path d="M57.2376 46.8314L52.0695 27.5438L54.295 26.9475L59.4631 46.2351L57.2376 46.8314ZM72.5432 41.0871C71.6007 42.6471 70.198 43.6767 68.3352 44.1759C66.4724 44.675 64.7429 44.4847 63.1466 43.6049C61.5504 42.7251 60.4961 41.3291 59.9837 39.4168C59.4669 37.4881 59.6819 35.7519 60.6288 34.2084C61.5713 32.6483 62.974 31.6188 64.8368 31.1196C66.6996 30.6205 68.4291 30.8108 70.0254 31.6906C71.6172 32.5539 72.6715 33.9499 73.1883 35.8787C73.7007 37.7909 73.4857 39.5271 72.5432 41.0871ZM68.2583 43.2954C69.3628 42.9994 70.1898 42.3273 70.7393 41.2789C71.3054 40.2261 71.3697 38.8837 70.9324 37.2517C70.4774 35.5537 69.6738 34.1701 68.5215 33.1007C67.3648 32.0148 66.16 31.6397 64.9071 31.9754C63.8026 32.2713 62.9695 32.9539 62.4079 34.0232C61.8584 35.0715 61.8023 36.4117 62.2396 38.0438C62.6946 39.7417 63.4982 41.1254 64.6505 42.1948C65.8028 43.2642 67.0054 43.6311 68.2583 43.2954ZM82.5237 40.3741C80.6279 40.882 78.9314 40.6829 77.434 39.7766C75.9532 38.8659 74.961 37.4709 74.4575 35.5916C73.9186 33.5804 74.1165 31.8135 75.0514 30.2909C75.9862 28.7682 77.3603 27.764 79.1737 27.2781C80.6244 26.8894 81.8826 26.8703 82.9483 27.2208C84.0095 27.5548 84.6352 28.0763 84.8251 28.7851C84.9179 29.1313 84.894 29.4381 84.7536 29.7054C84.6297 29.9683 84.4194 30.1395 84.1227 30.219C83.4633 30.3957 82.883 30.1094 82.3819 29.3603C82.0492 28.778 81.6364 28.3585 81.1436 28.1019C80.6508 27.8452 79.9675 27.8339 79.0938 28.0681C77.9563 28.3728 77.1233 29.0554 76.5947 30.1159C76.0825 31.1719 76.0319 32.4664 76.4426 33.9995C76.933 35.8294 77.769 37.1691 78.9507 38.0186C80.1489 38.8636 81.4816 39.0896 82.9488 38.6965C85.2732 38.0737 86.4388 36.4892 86.4457 33.943L87.1133 33.7641C87.3176 37.2962 85.7878 39.4995 82.5237 40.3741ZM93.0602 37.5508C91.9063 37.86 90.8706 37.8195 89.9533 37.4292C89.0315 37.0224 88.4404 36.3327 88.1797 35.3601C87.5304 32.9368 89.8513 30.7512 95.1424 28.8034L94.9039 27.9132C94.5461 26.5779 94.0712 25.6627 93.4791 25.1676C92.8871 24.6725 92.1212 24.5509 91.1816 24.8026C90.143 25.0809 89.4905 25.5473 89.2242 26.2017C89.12 26.4063 89.0763 26.6389 89.0931 26.8994C89.1219 27.1391 89.1948 27.4111 89.3117 27.7154C89.4451 28.0154 89.5162 28.1819 89.5251 28.2149C89.6134 28.5446 89.5852 28.8348 89.4403 29.0857C89.312 29.3321 89.083 29.4994 88.7533 29.5878C88.4071 29.6805 88.1004 29.6567 87.833 29.5163C87.5778 29.355 87.3994 29.0848 87.2978 28.7056C87.0593 27.8154 87.3028 26.9109 88.0284 25.9921C88.7539 25.0732 89.7926 24.4327 91.1444 24.0705C92.727 23.6465 94.0006 23.6851 94.9654 24.1863C95.9466 24.6832 96.6647 25.7806 97.1197 27.4785L98.6189 33.1725C98.7779 33.766 98.9565 34.1687 99.1546 34.3806C99.3648 34.5717 99.6348 34.623 99.9645 34.5347C100.525 34.3845 100.898 33.9311 101.084 33.1745L101.539 33.2911C101.339 34.6523 100.612 35.5008 99.3592 35.8365C98.7163 36.0088 98.1418 35.9419 97.6357 35.6357C97.1461 35.3252 96.7887 34.7496 96.5634 33.9088L96.3779 33.2164C96.4576 35.492 95.3517 36.9368 93.0602 37.5508ZM93.8139 36.2092C94.6381 35.9884 95.2757 35.4995 95.7267 34.7426C96.1941 33.9813 96.2599 32.9742 95.9242 31.7213L95.3014 29.3969C93.5258 30.1554 92.2118 30.9227 91.3597 31.6987C90.5196 32.4539 90.2342 33.3343 90.5037 34.3399C90.6936 35.0487 91.0878 35.5969 91.6864 35.9842C92.2969 36.3507 93.0061 36.4257 93.8139 36.2092ZM102.834 34.6139L97.666 15.3262L99.8915 14.7299L105.06 34.0175L102.834 34.6139Z" fill="white"/>
</svg>
