<svg width="282" height="282" viewBox="0 0 282 282" fill="none" xmlns="http://www.w3.org/2000/svg">
<g clip-path="url(#clip0_0_5)">
<path d="M281.833 141C281.833 218.775 218.775 281.833 140.999 281.833C63.2241 281.833 0.166016 218.775 0.166016 141C0.166016 63.2248 63.2241 0.166656 140.999 0.166656C218.775 0.166656 281.833 63.2248 281.833 141Z" fill="url(#paint0_linear_0_5)"/>
<path opacity="0.05" d="M198.545 85.8778L126.917 157.506L90.4973 121.086C84.9978 115.587 76.0831 115.587 70.5835 121.086L60.6266 131.043C55.1271 136.543 55.1271 145.457 60.6266 150.957L116.96 207.29C122.459 212.79 131.374 212.79 136.874 207.29L228.415 115.749C233.915 110.249 233.915 101.334 228.415 95.8348L218.459 85.8778C212.959 80.3783 204.044 80.3783 198.545 85.8778Z" fill="black"/>
<path opacity="0.07" d="M119.446 204.805L63.1124 148.471C58.986 144.345 58.986 137.655 63.1124 133.536L73.0693 123.579C77.1957 119.452 83.8853 119.452 88.0047 123.579L126.917 162.484L201.03 88.3706C205.157 84.2442 211.846 84.2442 215.966 88.3706L225.923 98.3275C230.049 102.454 230.049 109.143 225.923 113.263L134.381 204.805C130.262 208.924 123.572 208.924 119.446 204.805Z" fill="black"/>
<path d="M121.937 202.312L65.604 145.978C62.8507 143.225 62.8507 138.768 65.604 136.022L75.5609 126.065C78.3142 123.311 82.7716 123.311 85.5179 126.065L126.916 167.463L203.522 90.8563C206.275 88.103 210.733 88.103 213.479 90.8563L223.436 100.813C226.189 103.566 226.189 108.024 223.436 110.77L131.894 202.312C129.148 205.065 124.684 205.065 121.937 202.312Z" fill="white"/>
</g>
<defs>
<linearGradient id="paint0_linear_0_5" x1="41.4161" y1="41.4167" x2="240.583" y2="240.583" gradientUnits="userSpaceOnUse">
<stop stop-color="#21AD64"/>
<stop offset="1" stop-color="#088242"/>
</linearGradient>
<clipPath id="clip0_0_5">
<rect width="282" height="282" fill="white"/>
</clipPath>
</defs>
</svg>
