<svg width="241" height="52" viewBox="0 0 241 52" fill="none" xmlns="http://www.w3.org/2000/svg">
<path d="M106.104 1.03906H110.398L112.294 16.1746H112.62L114.693 1.03906H118.721L120.795 16.1746H121.15L123.016 1.03906H127.311V1.72031L124.083 21.7727H118.484L116.885 8.65128H116.559L114.93 21.7727H109.332L106.104 1.72031V1.03906Z" fill="#757575"/>
<path d="M145.654 1.03906V4.83036H139.167V9.8953C139.779 9.65834 140.421 9.47075 141.092 9.33253C141.784 9.1943 142.465 9.10544 143.136 9.06595C143.808 9.02646 144.43 9.0462 145.002 9.12519V12.7684L144.736 12.9461C144.282 12.8079 143.748 12.7289 143.136 12.7092C142.544 12.6894 141.902 12.7289 141.211 12.8276C140.52 12.9264 139.839 13.0942 139.167 13.3312V17.9814H145.654V21.7727H135.02V1.03906H145.654Z" fill="#757575"/>
<path d="M153.816 21.7727V1.03906H162.198C163.699 1.03906 164.904 1.48336 165.812 2.37194C166.74 3.24078 167.204 4.42556 167.204 5.92628C167.204 6.83461 167.046 7.60472 166.73 8.2366C166.434 8.84874 166.059 9.33253 165.605 9.68796C165.151 10.0236 164.716 10.2606 164.301 10.3988V10.6062C164.835 10.7444 165.378 11.0307 165.931 11.4651C166.483 11.8996 166.947 12.4821 167.323 13.2127C167.718 13.9433 167.915 14.8516 167.915 15.9377C167.915 17.2212 167.658 18.2974 167.145 19.1662C166.651 20.035 165.96 20.6867 165.072 21.1211C164.183 21.5555 163.146 21.7727 161.962 21.7727H153.816ZM157.963 18.011H161.073C161.823 18.011 162.426 17.7938 162.88 17.3594C163.334 16.9052 163.561 16.2536 163.561 15.4045C163.561 14.5949 163.324 13.9729 162.85 13.5385C162.376 13.0843 161.784 12.8572 161.073 12.8572H157.963V18.011ZM157.963 9.5991H161.014C161.646 9.5991 162.159 9.38189 162.554 8.94747C162.949 8.49331 163.146 7.88117 163.146 7.11106C163.146 6.32121 162.949 5.70907 162.554 5.27465C162.159 4.84023 161.646 4.62302 161.014 4.62302H157.963V9.5991Z" fill="#757575"/>
<path d="M117.862 27.7191V31.5104H111.376V36.5753C111.988 36.3383 112.63 36.1508 113.301 36.0125C113.992 35.8743 114.673 35.7854 115.345 35.7459C116.016 35.7065 116.638 35.7262 117.211 35.8052V39.4484L116.944 39.6261C116.49 39.4879 115.957 39.4089 115.345 39.3891C114.752 39.3694 114.111 39.4089 113.42 39.5076C112.728 39.6064 112.047 39.7742 111.376 40.0112V44.6614H117.862V48.4527H107.229V27.7191H117.862Z" fill="#757575"/>
<path d="M124.839 48.4527V47.7715L129.045 37.7897L125.135 28.4003V27.7191H129.401L132.451 35.6867H132.896L135.887 27.7191H140.153V28.4003L136.42 37.7897L140.449 47.7715V48.4527H136.184L132.896 40.4258H132.451L129.104 48.4527H124.839Z" fill="#757575"/>
<path d="M147.8 48.4527V27.7191H154.997C156.261 27.7191 157.367 27.956 158.315 28.4299C159.262 28.9038 160.003 29.6443 160.536 30.6514C161.089 31.6387 161.365 32.9321 161.365 34.5316C161.365 36.1113 161.069 37.4343 160.477 38.5006C159.904 39.5471 159.134 40.337 158.167 40.8701C157.219 41.3835 156.162 41.6402 154.997 41.6402H151.946V48.4527H147.8ZM151.946 38.0563H154.434C154.968 38.0563 155.442 37.918 155.856 37.6416C156.271 37.3652 156.587 36.9801 156.804 36.4864C157.021 35.9928 157.13 35.4103 157.13 34.7389C157.13 34.0675 157.021 33.4949 156.804 33.021C156.587 32.5273 156.271 32.1521 155.856 31.8954C155.442 31.6387 154.968 31.5104 154.434 31.5104H151.946V38.0563Z" fill="#757575"/>
<path d="M169.026 27.7191H173.173V48.4527H168.967L169.026 27.7191ZM176.55 27.7191C177.735 27.7191 178.781 27.956 179.689 28.4299C180.618 28.8841 181.348 29.5851 181.881 30.5329C182.414 31.461 182.681 32.626 182.681 34.028C182.681 35.4695 182.385 36.674 181.792 37.6416C181.22 38.5894 180.469 39.3102 179.541 39.8038C178.633 40.2777 177.656 40.5147 176.609 40.5147H170.981V27.7191H176.55ZM173.114 36.9307H176.046C176.52 36.9307 176.935 36.8221 177.29 36.6049C177.646 36.3877 177.912 36.0718 178.09 35.6571C178.287 35.2227 178.386 34.7389 178.386 34.2057C178.386 33.6331 178.287 33.1493 178.09 32.7544C177.912 32.3397 177.646 32.0336 177.29 31.8362C176.935 31.619 176.52 31.5104 176.046 31.5104H173.114V36.9307ZM174.773 38.2636L178.742 38.1748L182.681 47.7715V48.4527H178.357L174.773 38.2636Z" fill="#757575"/>
<path d="M201.405 27.7191V31.5104H194.918V36.5753C195.53 36.3383 196.172 36.1508 196.843 36.0125C197.534 35.8743 198.215 35.7854 198.887 35.7459C199.558 35.7065 200.18 35.7262 200.753 35.8052V39.4484L200.486 39.6261C200.032 39.4879 199.499 39.4089 198.887 39.3891C198.294 39.3694 197.653 39.4089 196.962 39.5076C196.27 39.6064 195.589 39.7742 194.918 40.0112V44.6614H201.405V48.4527H190.771V27.7191H201.405Z" fill="#757575"/>
<path d="M221.328 42.9731C221.328 44.1974 221.061 45.2439 220.528 46.1128C220.015 46.9816 219.294 47.653 218.366 48.1269C217.438 48.5811 216.371 48.8082 215.167 48.8082C214.219 48.8082 213.34 48.6897 212.531 48.4527C211.721 48.2355 211.02 47.9689 210.428 47.653C209.855 47.3371 209.431 47.0705 209.154 46.8533V42.7954H209.687C210.319 43.368 211.089 43.8814 211.998 44.3356C212.926 44.77 213.814 44.9872 214.663 44.9872C215.118 44.9872 215.522 44.9181 215.878 44.7799C216.253 44.6219 216.549 44.4047 216.766 44.1283C216.984 43.8518 217.092 43.5161 217.092 43.1212C217.092 42.5288 216.915 42.0549 216.559 41.6995C216.223 41.3243 215.7 40.9294 214.989 40.5147L212.531 39.0633C211.919 38.7079 211.316 38.2932 210.724 37.8193C210.151 37.3257 209.668 36.7135 209.273 35.9829C208.897 35.2325 208.71 34.3242 208.71 33.2579C208.71 31.9941 208.976 30.9278 209.51 30.059C210.063 29.1704 210.783 28.5089 211.672 28.0745C212.58 27.6203 213.597 27.3932 214.723 27.3932C215.591 27.3932 216.381 27.4821 217.092 27.6598C217.823 27.8375 218.465 28.0745 219.017 28.3707C219.59 28.6471 220.064 28.973 220.439 29.3481V33.406H219.876C219.284 32.7544 218.553 32.2311 217.685 31.8362C216.836 31.4215 215.967 31.2142 215.078 31.2142C214.486 31.2142 213.982 31.3623 213.568 31.6585C213.153 31.9547 212.945 32.3891 212.945 32.9617C212.945 33.5344 213.182 34.028 213.656 34.4427C214.13 34.8574 214.752 35.3017 215.522 35.7756L217.981 37.2862C218.652 37.7008 219.235 38.1747 219.728 38.7079C220.222 39.2213 220.607 39.8236 220.884 40.5147C221.18 41.2058 221.328 42.0253 221.328 42.9731Z" fill="#757575"/>
<path d="M240.876 42.9731C240.876 44.1974 240.609 45.2439 240.076 46.1128C239.562 46.9816 238.842 47.653 237.914 48.1269C236.986 48.5811 235.919 48.8082 234.715 48.8082C233.767 48.8082 232.888 48.6897 232.079 48.4527C231.269 48.2355 230.568 47.9689 229.976 47.653C229.403 47.3371 228.978 47.0705 228.702 46.8533V42.7954H229.235C229.867 43.368 230.637 43.8814 231.545 44.3356C232.473 44.77 233.362 44.9872 234.211 44.9872C234.665 44.9872 235.07 44.9181 235.426 44.7799C235.801 44.6219 236.097 44.4047 236.314 44.1283C236.531 43.8518 236.64 43.5161 236.64 43.1212C236.64 42.5288 236.462 42.0549 236.107 41.6995C235.771 41.3243 235.248 40.9294 234.537 40.5147L232.079 39.0633C231.466 38.7079 230.864 38.2932 230.272 37.8193C229.699 37.3257 229.215 36.7135 228.82 35.9829C228.445 35.2325 228.258 34.3242 228.258 33.2579C228.258 31.9941 228.524 30.9278 229.057 30.059C229.61 29.1704 230.331 28.5089 231.22 28.0745C232.128 27.6203 233.145 27.3932 234.27 27.3932C235.139 27.3932 235.929 27.4821 236.64 27.6598C237.371 27.8375 238.012 28.0745 238.565 28.3707C239.138 28.6471 239.612 28.973 239.987 29.3481V33.406H239.424C238.832 32.7544 238.101 32.2311 237.232 31.8362C236.383 31.4215 235.514 31.2142 234.626 31.2142C234.033 31.2142 233.53 31.3623 233.115 31.6585C232.701 31.9547 232.493 32.3891 232.493 32.9617C232.493 33.5344 232.73 34.028 233.204 34.4427C233.678 34.8574 234.3 35.3017 235.07 35.7756L237.529 37.2862C238.2 37.7008 238.782 38.1747 239.276 38.7079C239.77 39.2213 240.155 39.8236 240.431 40.5147C240.727 41.2058 240.876 42.0253 240.876 42.9731Z" fill="#757575"/>
<path d="M9.22996 1.5332H0.897461L21.0975 51.2132L37.2575 12.0714L53.165 51.2132L73.365 1.5332H65.0325L53.165 30.3878L41.55 1.5332H33.2175L21.0975 30.3878L9.22996 1.5332Z" fill="#757575"/>
<path opacity="0.3" d="M93.8179 49.9579V42.4307H61.2454L57.9629 49.9579H93.8179Z" fill="#757575"/>
<path opacity="0.3" d="M93.8182 29.6347V22.1074H69.3257L66.0432 29.6347H93.8182Z" fill="#757575"/>
<path opacity="0.3" d="M93.818 1.5332H77.658L74.123 9.31138H93.818V1.5332Z" fill="#757575"/>
</svg>
