<svg width="130" height="52" viewBox="0 0 130 52" fill="none" xmlns="http://www.w3.org/2000/svg">
<g clip-path="url(#clip0_1_289)">
<path d="M127.797 18.1951C127.103 16.7644 126.169 15.4581 125.035 14.3301C124.807 14.1133 124.563 13.9138 124.305 13.7334C124.11 13.5852 123.907 13.4478 123.697 13.3219H123.653L123.598 13.2902C123.371 13.1691 123.137 13.0597 122.898 12.9626H122.837C122.237 12.7299 121.597 12.6102 120.952 12.6097H120.684C119.975 12.654 119.283 12.8408 118.653 13.1605C117.907 13.549 117.222 14.0416 116.621 14.6229H116.584L116.547 14.6593C116.523 14.6859 116.497 14.7098 116.467 14.7305L116.351 14.8381C115.939 15.2196 115.524 15.6327 115.044 16.1154L114.703 16.4636C114.272 16.8874 113.844 17.3148 113.42 17.7456C113.552 15.4886 113.694 13.1779 113.808 10.8845C113.808 10.5917 113.839 10.2878 113.863 9.99979C113.949 8.99794 113.97 7.98975 113.924 6.98473V6.73941C113.863 5.59353 113.766 3.86679 112.602 2.38696C111.747 1.2854 110.041 -0.00292969 106.794 -0.00292969C106.059 0.00193752 105.325 0.0558742 104.597 0.158507C103.402 0.325098 102.223 0.590891 101.074 0.953027C97.4601 2.1179 95.3735 3.93802 94.8494 6.41179C94.4656 8.24457 95.1542 9.83994 95.6041 10.8956L95.7008 11.1235C96.1088 12.0494 96.5781 12.9468 97.107 13.811L97.5456 14.5817C98.665 16.58 99.7987 18.5706 100.947 20.5533L99.2049 19.9566L98.7615 19.8015C98.1165 19.5688 97.5456 19.371 97.0151 19.2032L96.8699 19.1621L96.7667 19.132H96.6684C95.8667 18.8685 95.03 18.7219 94.185 18.6968H94.0528C93.386 18.694 92.7256 18.8237 92.1113 19.0782C91.4308 19.3599 90.8212 19.7809 90.3213 20.3143C90.1549 20.5072 89.9967 20.7068 89.8472 20.9126L89.8117 20.9601L89.7747 21.0139C89.4672 21.4728 89.216 21.9658 89.0264 22.4826V22.519C88.51 24.0126 88.2527 25.5807 88.2653 27.1579C86.714 21.1864 81.628 16.7722 75.6276 16.7722C73.4496 16.7791 71.3124 17.3525 69.4337 18.434C68.375 17.5552 67.0439 17.0548 65.6578 17.0145C64.2718 16.9743 62.9129 17.3966 61.803 18.2125V15.0708C61.7656 13.4882 61.1042 11.9816 59.9581 10.8678C58.8119 9.75411 57.2703 9.12011 55.6576 9.09923C54.0229 9.1051 52.4575 9.74741 51.305 10.8851C50.1524 12.0228 49.507 13.563 49.5104 15.1673V21.6944C49.3571 21.4964 49.1929 21.3067 49.0186 21.1262C47.2491 19.3071 45.0219 17.9782 42.5619 17.2739C40.0844 16.5898 37.4623 16.592 34.986 17.2803H34.9199C32.9233 17.7936 31.077 18.759 29.5291 20.0991C29.0402 19.0906 28.269 18.2395 27.3055 17.6453C26.3421 17.0512 25.2262 16.7384 24.0883 16.7437C23.511 16.7437 22.9386 16.826 22.3854 16.9875C19.3425 17.8896 18.125 20.7923 17.3833 22.5238C17.3155 22.6852 17.2543 22.8356 17.1898 22.978C17.0059 23.4085 16.8301 23.7899 16.6899 24.0954C16.5484 24.3913 16.4183 24.6922 16.2996 24.9975C16.2141 25.2302 16.1416 25.3901 16.0577 25.5942C15.5499 24.5823 15.0365 23.573 14.5177 22.5665L14.2113 21.9334C13.4454 20.3191 12.2956 17.8959 9.43653 17.0476C8.0112 16.6201 6.4749 16.7275 5.1257 17.349C3.77651 17.9704 2.71061 19.0616 2.13482 20.4109C0.752849 23.6174 2.46862 26.4473 3.38778 27.9651C4.04571 29.0414 4.8907 30.4658 5.68247 31.9488C6.02111 32.5455 6.15011 32.7971 6.89834 34.2232L7.008 34.421L7.9578 36.2126C8.18356 36.6241 8.4319 37.0958 8.72377 37.6466C9.035 38.2432 9.38815 38.8874 9.77678 39.6044C9.71066 39.6946 9.64293 39.7895 9.56392 39.8798L9.50909 39.9446L9.42363 39.9035C8.81681 39.6009 8.17299 39.3759 7.5079 39.234C7.03887 39.1272 6.55902 39.0731 6.07755 39.0726C5.02417 39.0722 3.98926 39.3441 3.0769 39.8608C2.16455 40.3776 1.40693 41.1211 0.880241 42.0164C0.354074 42.9183 0.084006 43.9422 0.0981873 44.9813C0.112369 46.0205 0.41028 47.0369 0.96087 47.9247C2.78468 50.9097 6.50326 51.997 9.3946 51.997C10.1606 52.0001 10.9265 51.9226 11.6748 51.7643C18.1686 50.3794 20.9793 44.2385 23.0305 39.7547L23.4433 38.8526C23.8662 37.9011 24.3066 36.9571 24.764 36.0211L25.172 35.1427C25.5867 36.4496 26.1953 37.6895 26.978 38.8225C27.4618 39.5284 28.002 40.1947 28.5971 40.812C29.2018 41.4181 29.8597 41.9705 30.5628 42.4659C31.2723 42.9502 32.0302 43.368 32.8204 43.7131C33.6267 44.0834 34.47 44.362 35.3392 44.5503C35.8713 44.6785 36.4132 44.7767 36.9582 44.8415C37.4581 44.8938 37.958 44.9159 38.4611 44.908H38.9046C40.707 44.9099 42.4963 44.6069 44.1938 44.0122C44.9743 43.759 45.7306 43.4345 46.4514 43.0452C47.7328 42.3148 48.785 41.2525 49.4927 39.9747C49.68 41.4317 50.4003 42.7721 51.5196 43.7466C52.6388 44.7211 54.0808 45.2633 55.5769 45.272C56.8944 45.272 58.1748 44.8526 59.2294 44.0771V45.9653C59.2294 47.565 59.8769 49.0992 61.0294 50.2303C62.1819 51.3615 63.745 51.997 65.3749 51.997C67.0048 51.997 68.5679 51.3615 69.7204 50.2303C70.8729 49.0992 71.5204 47.565 71.5204 45.9653V44.3177C72.8169 44.7608 74.1811 44.9872 75.555 44.9856C82.7713 44.9856 88.6426 38.6785 88.6555 30.9264C88.8039 31.3964 89.0087 31.8475 89.2635 32.2717C89.6505 32.8699 90.1568 33.3843 90.7551 33.7816C91.6145 34.3444 92.6185 34.6572 93.6513 34.6837H94.1254C94.9288 34.6649 95.7272 34.5528 96.5039 34.3498H96.6329L99.9967 33.6027C99.4678 34.3197 98.9502 35.0177 98.4519 35.7109L98.1713 36.0987C97.7649 36.6479 97.4166 37.1322 97.107 37.5975L97.0215 37.7289L96.9603 37.8191L96.9312 37.8602V37.903C96.4489 38.5921 96.0713 39.3465 95.8105 40.1425C95.5975 40.8162 95.5316 41.5265 95.617 42.2269C95.7105 42.9423 95.9605 43.6308 96.3459 44.2449V44.2749C96.4862 44.4902 96.6442 44.6991 96.8022 44.8716L96.8393 44.908L96.8699 44.9492C97.0393 45.147 97.2279 45.3322 97.4182 45.511C97.6408 45.7279 97.881 45.9273 98.1358 46.1093C99.3388 46.9165 100.655 47.5496 102.041 47.9896C103.223 48.3757 104.451 48.6068 105.692 48.6765H106.047C106.25 48.6785 106.453 48.6685 106.655 48.6464C106.908 48.6258 107.16 48.5926 107.408 48.5451H107.518C107.773 48.4865 108.026 48.4137 108.272 48.3298H108.31C108.992 48.081 109.614 47.6944 110.135 47.195C110.635 46.6948 111.026 46.0997 111.285 45.4461C111.579 44.663 111.756 43.8419 111.809 43.0088V42.9011C111.812 42.8654 111.812 42.8293 111.809 42.7935V42.6558C111.862 42.0591 111.888 41.5099 111.917 40.8642V39.9462L112.125 40.315L112.362 40.7518C112.691 41.3485 112.97 41.8502 113.262 42.3282L113.336 42.4469L113.402 42.5545V42.5909L113.434 42.6384C113.9 43.3475 114.47 43.9837 115.124 44.5313C115.648 45.0141 116.269 45.3828 116.95 45.6123H116.987C117.514 45.7864 118.067 45.8751 118.623 45.8751C118.796 45.8751 118.969 45.864 119.14 45.845H119.196C119.457 45.8165 119.717 45.7738 119.975 45.7136H120.083C120.333 45.6503 120.58 45.5696 120.82 45.4762C121.107 45.3702 121.384 45.2436 121.654 45.0995C122.742 44.5025 123.745 43.7653 124.635 42.9075C125.686 41.9151 126.587 40.7811 127.312 39.5395C127.592 39.0447 127.805 38.5164 127.946 37.9678V37.8666C128.006 37.6188 128.05 37.3678 128.08 37.1148V37.0356C128.148 36.326 128.065 35.6102 127.836 34.9338C127.596 34.2654 127.214 33.6547 126.715 33.1422C126.126 32.5414 125.452 32.0266 124.714 31.6133H124.671L124.622 31.5848L124.525 31.531L124.403 31.4518C123.918 31.1717 123.376 30.8551 122.803 30.5813L122.329 30.3297C121.573 29.9155 120.808 29.5171 120.034 29.1347L123.369 28.3766H123.498C124.445 28.2011 125.358 27.8806 126.204 27.427C127.119 26.9591 127.881 26.247 128.402 25.3726C128.744 24.7633 128.952 24.0907 129.01 23.3958C129.278 21.2402 128.354 19.3346 127.801 18.1951H127.797Z" fill="white" fill-opacity="0.96"/>
<path opacity="0.5" d="M102.661 29.8984L104.669 29.4426C104.71 29.4331 104.781 29.4172 104.865 29.3903C105.42 29.2444 105.895 28.8929 106.191 28.4099C106.486 27.9269 106.579 27.3501 106.45 26.801L106.442 26.7662C106.376 26.5031 106.26 26.2546 106.1 26.0334C105.876 25.7534 105.597 25.519 105.281 25.3434C104.909 25.1352 104.52 24.9584 104.117 24.8147L101.916 24.025C100.681 23.5739 99.4454 23.1355 98.1973 22.7066C97.3894 22.4248 96.704 22.1764 96.109 21.9943C95.9957 21.9636 95.8834 21.9298 95.772 21.893C95.0528 21.6778 94.5464 21.5876 94.1191 21.5844C93.8335 21.574 93.549 21.6248 93.2854 21.7332C93.01 21.8502 92.7628 22.0228 92.5597 22.2397C92.459 22.3519 92.3643 22.4692 92.2759 22.591C92.1041 22.8501 91.9624 23.1272 91.8534 23.4172C91.4445 24.6027 91.2406 25.847 91.2503 27.0986C91.2584 28.2286 91.289 29.68 91.9228 30.6644C92.076 30.9177 92.2808 31.1361 92.5243 31.3054C92.9758 31.6109 93.4305 31.652 93.9062 31.6853C94.6158 31.7343 95.3011 31.565 95.9864 31.4083L102.656 29.8968L102.661 29.8984ZM125.059 19.4383C124.511 18.3092 123.774 17.2783 122.879 16.3884C122.764 16.2752 122.64 16.1705 122.508 16.075C122.387 15.9857 122.261 15.9028 122.131 15.8265C121.997 15.7545 121.859 15.6895 121.718 15.6319C121.44 15.5244 121.141 15.4759 120.843 15.4894C120.557 15.5052 120.278 15.5844 120.025 15.7157C119.643 15.9025 119.228 16.2032 118.677 16.7049C118.601 16.7793 118.506 16.8632 118.419 16.9423C117.966 17.3618 117.459 17.8793 116.858 18.4807C115.927 19.4034 115.013 20.3309 114.102 21.2663L112.473 22.925C112.176 23.2275 111.905 23.5542 111.664 23.9015C111.457 24.1954 111.311 24.526 111.233 24.8749C111.19 25.1428 111.196 25.4164 111.253 25.6821L111.261 25.7169C111.389 26.2654 111.73 26.7435 112.211 27.0505C112.691 27.3575 113.274 27.4695 113.838 27.3629C113.905 27.3535 113.973 27.3408 114.039 27.3249L122.718 25.356C123.403 25.2009 124.097 25.0585 124.711 24.7071C125.124 24.4744 125.516 24.2418 125.785 23.7733C125.929 23.5153 126.015 23.2306 126.04 22.9376C126.174 21.7759 125.556 20.4575 125.059 19.4383ZM109.522 23.0199C110.151 22.2444 110.151 21.089 110.206 20.1426C110.396 16.9851 110.595 13.8276 110.754 10.6685C110.814 9.47195 110.945 8.29125 110.872 7.08522C110.812 6.09128 110.806 4.94856 110.166 4.13189C109.037 2.69162 106.628 2.81032 104.985 3.03507C104.478 3.10379 103.974 3.19675 103.477 3.31363C102.977 3.43075 102.48 3.55895 101.996 3.71247C100.419 4.21894 98.2021 5.14957 97.828 6.93328C97.6151 7.94147 98.1183 8.97181 98.5053 9.89295C98.9778 11.0072 99.6212 12.0122 100.208 13.0615C101.761 15.8329 103.341 18.5884 104.917 21.3454C105.389 22.1684 105.901 23.2099 106.812 23.6372C106.873 23.6625 106.934 23.6847 106.997 23.7052C107.405 23.8572 107.852 23.8857 108.276 23.7891L108.352 23.7733C108.745 23.6673 109.1 23.4568 109.379 23.1671C109.43 23.1196 109.476 23.0722 109.522 23.0199ZM108.769 31.4732C108.524 31.1343 108.175 30.8803 107.774 30.7476C107.373 30.6148 106.939 30.6101 106.534 30.7341C106.439 30.7648 106.346 30.8024 106.257 30.8464C106.118 30.9158 105.986 30.9968 105.862 31.0886C105.507 31.3631 105.19 31.6818 104.918 32.0366C104.849 32.1237 104.785 32.2392 104.701 32.3152L103.304 34.1986C102.514 35.2559 101.732 36.3147 100.96 37.3893C100.453 38.0842 100.018 38.6713 99.6712 39.1889C99.6067 39.287 99.5389 39.3946 99.4777 39.4833C99.0632 40.11 98.8294 40.569 98.7085 40.9773C98.6181 41.2486 98.5895 41.536 98.6246 41.8194C98.6633 42.1137 98.7649 42.397 98.9213 42.6519C99.0052 42.7785 99.0955 42.9019 99.1922 43.0206C99.4012 43.2567 99.6365 43.4691 99.8937 43.6537C100.858 44.3121 101.913 44.7853 103.022 45.151C103.946 45.4517 104.906 45.6321 105.876 45.6859C106.042 45.6938 106.209 45.6907 106.373 45.6764C106.526 45.6624 106.677 45.6413 106.828 45.6131C106.978 45.5787 107.127 45.5364 107.273 45.4865C107.557 45.3821 107.815 45.2204 108.031 45.0117C108.236 44.8107 108.394 44.5685 108.492 44.301C108.653 43.9054 108.76 43.4052 108.831 42.6614C108.835 42.5553 108.852 42.4287 108.863 42.3132C108.918 41.6959 108.943 40.9679 108.982 40.1164C109.051 38.8043 109.105 37.4986 109.147 36.1897L109.237 33.8599C109.258 33.325 109.24 32.7299 109.089 32.1965C109.022 31.9403 108.914 31.6961 108.769 31.4732ZM124.529 35.1182C124.239 34.8032 123.826 34.4914 123.174 34.1052C123.081 34.053 122.97 33.9849 122.868 33.9248C122.326 33.6035 121.673 33.268 120.91 32.8612C119.738 32.2281 118.566 31.614 117.38 31.0031L115.289 29.9142C115.181 29.8826 115.071 29.8066 114.968 29.7575C114.566 29.5559 114.139 29.4064 113.697 29.3128C113.545 29.284 113.391 29.2681 113.236 29.2653C113.136 29.2648 113.036 29.2706 112.936 29.2827C112.517 29.3462 112.13 29.5378 111.829 29.8303C111.528 30.1227 111.328 30.5011 111.259 30.9113C111.228 31.1725 111.238 31.4368 111.29 31.6932C111.391 32.2408 111.64 32.7805 111.898 33.2537L113.014 35.3097C113.636 36.4682 114.265 37.6204 114.91 38.7695C115.326 39.5181 115.673 40.1591 115.997 40.6909C116.058 40.7906 116.127 40.8982 116.181 40.9916C116.576 41.6294 116.892 42.0314 117.213 42.3211C117.426 42.5229 117.683 42.6758 117.964 42.7688C118.245 42.8618 118.544 42.8927 118.838 42.8592C118.992 42.8408 119.144 42.8144 119.294 42.7801C119.603 42.699 119.901 42.5838 120.183 42.4366C121.032 41.9696 121.814 41.3949 122.51 40.7273C123.345 39.9201 124.084 39.0401 124.658 38.0335C124.739 37.8911 124.806 37.7439 124.864 37.5904C124.918 37.4498 124.965 37.3066 125.005 37.1614C125.038 37.0127 125.064 36.8639 125.082 36.7135C125.111 36.418 125.076 36.1198 124.98 35.8383C124.886 35.5681 124.732 35.3217 124.529 35.1166V35.1182Z" fill="#757575"/>
<path fill-rule="evenodd" clip-rule="evenodd" d="M52.5031 15.1266C52.5031 13.4331 53.9076 12.0498 55.604 12.0498C57.2763 12.0498 58.634 13.4331 58.7066 15.1519V39.1679C58.7066 40.8614 57.3005 42.2447 55.604 42.2447C55.194 42.2445 54.7881 42.1646 54.4097 42.0095C54.0314 41.8544 53.6881 41.6272 53.3997 41.3411C53.1114 41.055 52.8837 40.7156 52.7298 40.3426C52.5759 39.9696 52.4988 39.5704 52.5031 39.1679V15.1266ZM49.6182 29.9613C49.594 30.4377 49.473 31.3209 48.8442 31.965C48.1653 32.6567 47.2445 32.8229 46.7107 32.8229C44.4934 32.8355 42.2762 32.8419 40.0589 32.8466C37.8416 32.8529 35.6243 32.8593 33.407 32.8703C33.6005 33.467 33.9876 34.3739 34.86 35.208C35.3921 35.7097 35.9017 35.9946 36.121 36.1149C36.3871 36.2811 37.3078 36.7591 38.4463 36.7591C39.659 36.7591 40.7249 36.376 41.7682 35.8522L41.8537 35.8078C42.5793 35.4391 43.3259 35.0592 44.1177 34.9215C44.8917 34.8028 45.7174 34.9453 46.3221 35.4707C47.0494 36.0912 47.3412 36.9965 47.0736 37.9271C46.7591 38.9764 45.8625 39.8833 44.9175 40.4309C44.3767 40.7416 43.8091 41.0048 43.2211 41.2176C41.7213 41.7399 40.1354 41.983 38.5447 41.9345C38.1577 41.9345 37.7448 41.9345 37.332 41.887C36.8966 41.8396 36.4612 41.743 36.0484 41.648C35.3792 41.5056 34.7284 41.2895 34.1085 41.0039C33.4884 40.734 32.896 40.4065 32.3395 40.0258C31.7845 39.6342 31.2659 39.1951 30.7898 38.7137C30.3164 38.2263 29.8865 37.7 29.5046 37.1405C28.1968 35.1843 27.5905 32.7754 27.7114 30.4377C27.8082 28.1491 28.5838 25.8589 29.99 23.9993C30.1416 23.765 30.3174 23.5672 30.4834 23.3804C30.556 23.2981 30.627 23.219 30.6931 23.1398C32.4282 21.057 34.7471 20.3986 35.7033 20.1264L35.7565 20.1105C37.6973 19.5697 39.7532 19.5697 41.694 20.1105C42.1552 20.2308 44.7482 21.0174 46.7591 23.1398C46.8559 23.2348 47.1235 23.545 47.4622 23.9993C48.3223 25.1488 48.9542 26.4471 49.3247 27.8262L49.3279 27.8389C49.4731 28.3628 49.6182 29.0798 49.6182 29.9613ZM35.3937 26.0267C34.4369 26.7904 33.7709 27.849 33.5038 29.0307H44.0693C43.7842 27.85 43.1117 26.794 42.1552 26.0251C41.1918 25.2668 39.9972 24.8472 38.7624 24.8333C37.534 24.8453 36.346 25.2654 35.3921 26.0251L35.3937 26.0267ZM75.5725 19.7054C72.8101 19.7054 70.2897 20.9225 68.4965 22.9024V22.8296C68.4606 22.0345 68.1077 21.2851 67.514 20.7429C66.9204 20.2007 66.1334 19.9092 65.3228 19.9313C64.5122 19.9533 63.7428 20.287 63.1806 20.8606C62.6184 21.4341 62.3083 22.2015 62.3172 22.9974V45.9166C62.3152 46.3174 62.3941 46.7146 62.5493 47.0854C62.7044 47.4561 62.9327 47.7931 63.2211 48.0768C63.5095 48.3606 63.8522 48.5856 64.2296 48.7388C64.6069 48.892 65.0114 48.9705 65.4197 48.9697C65.828 48.9703 66.2323 48.8917 66.6094 48.7384C66.9866 48.585 67.3291 48.36 67.6173 48.0763C67.9055 47.7925 68.1337 47.4556 68.2887 47.085C68.4438 46.7143 68.5226 46.3173 68.5207 45.9166V38.7612C70.3139 40.7174 72.8101 41.9583 75.5966 41.9583C81.1471 41.9583 85.6542 37.0202 85.6542 30.8666C85.6301 24.7146 81.1229 19.7054 75.5725 19.7054ZM74.2163 36.9727C71.0653 36.9727 68.4965 34.2774 68.4965 30.9157C68.4965 27.5287 71.0411 24.8333 74.2163 24.8333C77.3656 24.8333 79.9345 27.5287 79.9345 30.9157C79.9103 34.2774 77.3656 36.9727 74.2163 36.9727ZM23.0592 32.4652L22.0417 34.6604C21.5805 35.6132 21.1193 36.5913 20.6839 37.5694L20.263 38.4874C18.3247 42.7164 16.0268 47.7367 11.0149 48.8019C8.59123 49.3273 4.93231 48.612 3.57453 46.3693C2.21836 44.1044 4.22923 41.504 6.82224 42.1007C7.23183 42.1893 7.63336 42.3856 8.03973 42.585C8.71539 42.9174 9.40074 43.2513 10.1425 43.1026C10.8456 42.9839 11.281 42.4821 11.8389 41.838C12.613 40.9564 12.9532 40.0258 13.0984 39.4766L13.0629 39.3943C13.0516 39.3658 13.0393 39.3379 13.0258 39.3104C12.3953 38.155 11.8438 37.1231 11.3842 36.2605C11.1258 35.7734 10.8651 35.2875 10.6021 34.8028L9.54587 32.8339C8.77183 31.3937 8.64283 31.1563 8.30096 30.5343C7.5473 29.1381 6.75524 27.7622 5.92565 26.4081C5.02906 24.9283 4.10829 23.2839 4.85974 21.5413C5.14219 20.8666 5.67256 20.3207 6.34576 20.0118C7.01896 19.7028 7.78586 19.6533 8.49447 19.8731C10.0538 20.3369 10.7456 21.7945 11.3906 23.1557C11.5084 23.4026 11.6229 23.6463 11.7422 23.879C12.7839 25.9064 13.8014 27.9339 14.819 29.9613C14.9093 30.1623 15.0447 30.4361 15.2124 30.7717C15.3608 31.0692 15.5333 31.4158 15.7156 31.7973L15.9848 32.348C16.0897 32.5633 16.1816 32.7469 16.2493 32.8941C16.7218 31.7387 17.2007 30.5881 17.678 29.4359C18.157 28.2852 18.6359 27.1346 19.1084 25.9776C19.1213 25.9143 19.2342 25.6674 19.4051 25.2955C19.5486 24.9805 19.7325 24.5769 19.9324 24.118L20.1372 23.6321C20.7661 22.1285 21.524 20.3195 23.2043 19.8257C23.8007 19.6558 24.4362 19.6724 25.0226 19.8732C25.6089 20.074 26.117 20.449 26.4762 20.9462C26.839 21.4463 26.9842 22.0193 27.0084 22.5922C27.0277 23.8584 26.4053 25.2164 25.8699 26.3812C25.7409 26.6661 25.6151 26.9383 25.5071 27.1947L25.4426 27.334C25.2942 27.6616 24.8911 28.548 24.1977 30.0088C23.9477 30.5311 23.7074 31.0566 23.4639 31.5868L23.0592 32.4652Z" fill="#757575"/>
</g>
<defs>
<clipPath id="clip0_1_289">
<rect width="128.96" height="52" fill="white" transform="translate(0.0976562)"/>
</clipPath>
</defs>
</svg>
